<svg xmlns="http://www.w3.org/2000/svg" viewBox="0 0 56.21 34.23"><defs><style>.cls-1{fill:#fff;}.cls-2{fill:#00498f;}.cls-3{fill:none;stroke:#eaeef2;stroke-miterlimit:10;stroke-width:1.24px;}</style></defs><title>flag_hond_tiutlo</title><g id="Layer_2" data-name="Layer 2"><g id="Capa_3" data-name="Capa 3"><rect class="cls-1" x="0.62" y="8.72" width="54.97" height="17.37"/><polygon class="cls-2" points="28.61 15.24 28.19 16.55 26.8 16.55 27.93 17.37 27.5 18.68 28.61 17.86 29.73 18.68 29.3 17.36 30.42 16.56 29.04 16.56 28.61 15.24"/><polygon class="cls-2" points="33.2 12.42 32.78 13.73 31.39 13.73 32.52 14.55 32.08 15.86 33.2 15.05 34.31 15.86 33.89 14.54 35.01 13.74 33.63 13.74 33.2 12.42"/><polygon class="cls-2" points="33.2 18.06 33.62 19.37 35.01 19.37 33.88 20.19 34.31 21.5 33.2 20.68 32.08 21.5 32.51 20.18 31.39 19.38 32.77 19.38 33.2 18.06"/><polygon class="cls-2" points="24.02 12.42 24.45 13.73 25.83 13.73 24.71 14.55 25.14 15.86 24.02 15.05 22.91 15.86 23.34 14.54 22.21 13.74 23.6 13.74 24.02 12.42"/><polygon class="cls-2" points="24.02 18.06 23.6 19.37 22.21 19.37 23.34 20.19 22.91 21.5 24.02 20.68 25.14 21.5 24.71 20.18 25.83 19.38 24.45 19.38 24.02 18.06"/><rect class="cls-2" x="0.62" y="22.64" width="54.97" height="11.01"/><rect class="cls-2" x="0.62" y="0.62" width="54.97" height="11.01"/><rect class="cls-3" x="0.62" y="0.62" width="54.97" height="32.98"/></g></g></svg>