<svg xmlns="http://www.w3.org/2000/svg" viewBox="0 0 56.21 34.23"><defs><style>.cls-1,.cls-10{fill:#003876;}.cls-2{fill:#e03a3e;}.cls-11,.cls-22,.cls-3,.cls-6,.cls-8{fill:#fff;}.cls-19,.cls-4{fill:#008065;}.cls-10,.cls-11,.cls-12,.cls-13,.cls-16,.cls-17,.cls-19,.cls-20,.cls-21,.cls-4,.cls-5,.cls-6,.cls-7,.cls-8,.cls-9{stroke:#000;}.cls-10,.cls-11,.cls-12,.cls-13,.cls-14,.cls-15,.cls-16,.cls-20,.cls-22,.cls-23,.cls-4,.cls-5,.cls-6,.cls-7,.cls-8,.cls-9{stroke-miterlimit:2.5;}.cls-10,.cls-11,.cls-12,.cls-13,.cls-14,.cls-15,.cls-16,.cls-17,.cls-19,.cls-20,.cls-21,.cls-22,.cls-23,.cls-4,.cls-5,.cls-7,.cls-8,.cls-9{stroke-width:0.09px;}.cls-21,.cls-5{fill:#996b38;}.cls-6{stroke-width:0.04px;}.cls-14,.cls-15,.cls-18,.cls-23,.cls-24,.cls-7{fill:none;}.cls-9{fill:#ffe26d;}.cls-11{stroke-linecap:round;}.cls-13{fill:#078fc7;}.cls-14{stroke:#ffe26d;}.cls-15,.cls-18{stroke:#008065;}.cls-16{fill:#cd7418;}.cls-18{stroke-width:0.35px;}.cls-20{fill:#ffce46;}.cls-22,.cls-23{stroke:#996b38;}.cls-24{stroke:#eaeef2;stroke-miterlimit:10;stroke-width:1.24px;}</style></defs><title>flag_bel_titulo</title><g id="Layer_2" data-name="Layer 2"><g id="Capa_3" data-name="Capa 3"><rect class="cls-1" x="0.62" y="4.12" width="54.61" height="26.21"/><rect class="cls-2" x="0.62" y="0.84" width="54.61" height="3.28"/><rect class="cls-2" x="0.62" y="30.33" width="54.61" height="3.27"/><circle class="cls-3" cx="28" cy="17.22" r="9.8"/><path class="cls-4" d="M26.25,12.81a.22.22,0,0,1-.1.25c-.09.06,0,0,.08,0s-.07.13,0,.14a.08.08,0,0,1,.08.08c0,.06.06,0,.09,0s.13,0,.08,0-.1.11-.05.16a.14.14,0,0,1,0,.19c.07.07-.11.21-.06.32a.16.16,0,0,0,.07-.07c0-.06,0,.07.06.14s.1,0,.1.05.08,0,.11,0,.17,0,.21.05c.13-.12.25-.1.3,0,.07-.11.13-.12.21-.06s0-.22.17,0,.46,0,.6,0,.2.18.33.14.09-.13,0-.17c.19.12.23,0,.3.06s0-.15,0-.2.07.06.12.08.1-.16.14-.19.05.09.11.12a.21.21,0,0,1,0-.16.2.2,0,0,0,.13.08c0-.12,0-.2.07-.19s-.09-.12-.13-.15,0-.1.15,0c0-.2-.45-.16-.47-.28s.13-.12.2-.07-.32-.18-.35-.27.07-.09.15,0-.06-.2,0-.25c-.07,0,0-.12.1-.08s.14-.07.06-.14-.24-.13-.15-.2,0-.23.16-.21c-.11-.14-.36-.09-.42-.13s.05-.12.12-.11c-.05-.2-.23-.13-.3-.27a.37.37,0,0,0-.41-.14s0,0,0,0-.16,0-.21.07a.13.13,0,0,1-.13.05c0,.06.07.08.05.12s-.09.05,0,.14,0,.08-.08.08a.08.08,0,0,1,0-.12c-.05,0-.06-.06-.05-.13-.14,0-.17-.06-.17-.1s-.08-.07-.1-.05a.09.09,0,0,0-.12,0,.14.14,0,0,1-.14,0s0,.07,0,.08-.13-.2-.2-.08a.31.31,0,0,1-.21.16.12.12,0,0,1-.05.19c.07,0,.07.08,0,.11.17,0,.19.06.13.12s-.35,0-.38.19a.5.5,0,0,1-.16.31h.11a.18.18,0,0,0,0,.15.38.38,0,0,0,.14-.11s-.06.15,0,.17.19-.15.22-.21a.21.21,0,0,1,0,.24c-.08.11-.23-.08-.31,0S26.31,12.71,26.25,12.81Z"/><path class="cls-5" d="M27.59,15.75a1.34,1.34,0,0,0,.15-.61,2,2,0,0,0-.11-1.05c-.16-.19,0-.08.08,0s.08-.06.08-.13a1.47,1.47,0,0,0-.14-.79c0-.06.1-.05.14,0s.1-.07.1-.21a8.14,8.14,0,0,1,.08.82,1.19,1.19,0,0,0,.23-.22c0-.08.05-.07.08,0s0,.06-.09.14-.21.19-.23.29,0,.16.08.17.26,0,.47-.31c0,0,.1,0,.15,0a.34.34,0,0,0,.24,0,.13.13,0,0,1-.16.09l-.18-.06s0,0-.07.09a.37.37,0,0,1-.24.21s0,.1,0,.24a2.48,2.48,0,0,0,.25,1.35Z"/><path class="cls-6" d="M27.11,11.53a.12.12,0,0,0,.16,0c.05,0,.05,0,.06,0a.32.32,0,0,0,.16,0c.06,0,.09,0,.06,0s0,.06,0,.08-.06,0-.11,0a.08.08,0,0,0-.13,0s-.1-.06-.15,0-.1,0-.07,0S27.06,11.47,27.11,11.53Z"/><path class="cls-6" d="M27,11.83s.11-.05.13,0,0,0-.05,0S27,11.86,27,11.83Z"/><path class="cls-6" d="M27,12.07c0,.06.13,0,.16,0s.11,0,.14.05.19,0,.2.08-.06.14-.12.08-.17,0-.23,0-.15,0-.18,0-.11,0-.06-.11A.05.05,0,0,1,27,12.07Z"/><path class="cls-6" d="M26.48,12.82c.12-.05.16-.08.22,0s.15,0,.19,0-.05.08.05.09.12.08,0,.07-.15.05-.23,0-.14,0-.19.06-.12.16-.11.07.08-.1.09-.16S26.42,12.84,26.48,12.82Z"/><path class="cls-6" d="M27.51,12.46a.94.94,0,0,0,.22,0l.08.05c-.15.12-.16.17-.12.21s-.12,0-.13.07-.06,0,0,0,0-.11.06-.13,0-.05,0-.07S27.45,12.44,27.51,12.46Z"/><path class="cls-6" d="M27.78,12l.16,0c.07,0,.11,0,.07.05s-.09,0-.07.09,0-.08-.11-.08S27.71,12,27.78,12Z"/><path class="cls-6" d="M28.15,12.06c0,.06,0,.18,0,.21s0,.07,0,.12.06-.12.13-.09.06-.05.06-.08,0-.09.09-.08-.16,0-.21-.1S28.13,12,28.15,12.06Z"/><path class="cls-6" d="M28.57,12.05c0,.09.1.07.09.12s-.08.05,0,.16c.06-.05.14-.11.19-.1s.07,0,.06-.08-.08,0-.13-.08-.08-.11-.1-.06S28.63,12.08,28.57,12.05Z"/><path class="cls-6" d="M28.87,12.68a.15.15,0,0,1-.15-.1c0-.06-.07-.05-.1,0a.25.25,0,0,1-.16.11c.1.05.18,0,.24,0S28.84,12.72,28.87,12.68Z"/><path class="cls-6" d="M28.1,12.76a.67.67,0,0,0,.34,0c.08,0,.2.06.31,0-.09.05-.12.13,0,.16s0,.09.13.1a.1.1,0,0,0-.07.11c0-.06-.09-.11-.14-.09a.19.19,0,0,0-.17-.15c.06,0,.05-.08,0-.08s-.15,0-.14.08-.11,0-.14,0S28,13,28,12.85,28.12,12.79,28.1,12.76Z"/><path class="cls-6" d="M27.58,13.17c-.16-.13-.31.09-.38,0,0,.17-.18.2-.12.28a.13.13,0,0,1,0,.13c-.07.06.22.13.19,0s.07-.18.05-.25.17,0,.17-.11-.09.08-.08.16C27.45,13.33,27.63,13.35,27.58,13.17Z"/><path class="cls-6" d="M26.7,13.71s-.11,0-.1,0-.12,0-.07-.1.15-.07.16-.12.07.12.13.11.08,0,.05.06,0,.11.09.09.1,0,.12,0-.21.05-.25,0A.1.1,0,0,0,26.7,13.71Z"/><path class="cls-6" d="M26.78,13.87a.76.76,0,0,1-.08.11s0,0,.09,0S26.81,13.82,26.78,13.87Z"/><path class="cls-6" d="M28.05,11.53c0,.05.13,0,.18,0s.1,0,.16.08.19,0,.23.1.08-.07.17,0a.25.25,0,0,0-.21,0c-.14,0-.13-.17-.24-.13s-.11-.07-.14,0S28.09,11.43,28.05,11.53Z"/><path class="cls-6" d="M28.32,13.62a.19.19,0,0,0,.08-.07.38.38,0,0,0,.23-.1c.05,0,.16.07.23,0s.07.08.12.06.16.08.28,0c-.1,0-.13.07-.14.11s-.08,0-.09.07-.1-.11-.19-.08-.14-.18-.27-.08-.22.08-.23.14A.16.16,0,0,0,28.32,13.62Z"/><path class="cls-6" d="M27.16,12.46c0,.19.12.2.07.31a.13.13,0,0,0,.11.18c.09,0,.15,0,.08-.12s-.12,0-.12-.11S27.13,12.53,27.16,12.46Z"/><path class="cls-6" d="M27.55,13.75c-.09,0-.14,0-.06.13S27.48,13.74,27.55,13.75Z"/><path class="cls-6" d="M27.1,13.89c0-.11.11-.09.12,0A.06.06,0,0,0,27.1,13.89Z"/><path class="cls-7" d="M27.68,15.78a2.18,2.18,0,0,0,.17-.73"/><path class="cls-7" d="M27.86,14.68a3.67,3.67,0,0,0-.05-.52"/><path class="cls-7" d="M28.1,15.75a4.28,4.28,0,0,1-.13-.46"/><path class="cls-7" d="M28.16,15.63a5.14,5.14,0,0,1-.12-1.1"/><path class="cls-7" d="M28.15,14.28a5,5,0,0,0,0,.78"/><path class="cls-8" d="M30.14,15.73v2.76A3.11,3.11,0,0,1,28,21.11a3.11,3.11,0,0,1-2.14-2.62V15.73Z"/><path class="cls-9" d="M30.14,15.73v2.76a2.08,2.08,0,0,1-.21.9h0L28,17.73v-2Z"/><path class="cls-10" d="M28,21.11a3.39,3.39,0,0,0,1.93-1.72L28,17.73l-1.93,1.66A3.39,3.39,0,0,0,28,21.11Z"/><line class="cls-11" x1="28.71" y1="19.23" x2="29.06" y2="19.1"/><line class="cls-11" x1="28" y1="18.53" x2="28" y2="18.23"/><line class="cls-11" x1="27.54" y1="18.65" x2="27.54" y2="18.39"/><line class="cls-11" x1="28.54" y1="18.51" x2="28.54" y2="18.26"/><line class="cls-11" x1="28.34" y1="18.52" x2="28.13" y2="18.67"/><line class="cls-11" x1="28.3" y1="18.75" x2="28.13" y2="18.96"/><line class="cls-11" x1="28.26" y1="19.03" x2="28.08" y2="19.27"/><path class="cls-8" d="M29,19.1c0,.06-.05.18,0,.3s-.06.1-.11.14c-.09-.15-.06-.29-.11-.36Z"/><path class="cls-8" d="M27.73,18.58l-.34.09a.34.34,0,0,0-.05.19l.37-.1A.62.62,0,0,1,27.73,18.58Z"/><path class="cls-8" d="M27.71,18.76a1.74,1.74,0,0,0-.38.1.7.7,0,0,0,0,.29c.09,0,.28-.08.37-.09A.73.73,0,0,1,27.71,18.76Z"/><path class="cls-8" d="M27.67,19.06a1.93,1.93,0,0,0-.38.09.5.5,0,0,0-.06.31l.43-.08A.59.59,0,0,1,27.67,19.06Z"/><path class="cls-8" d="M27.66,19.38a2.36,2.36,0,0,0-.43.08.49.49,0,0,0,0,.29c.14,0,.31,0,.43,0A1,1,0,0,1,27.66,19.38Z"/><path class="cls-8" d="M28.21,18.49a3.12,3.12,0,0,0-.41.06.59.59,0,0,0-.05.21l.42,0A.69.69,0,0,1,28.21,18.49Z"/><path class="cls-8" d="M28.18,18.73c-.11,0-.32,0-.43,0a.56.56,0,0,0,0,.3l.45,0A.67.67,0,0,1,28.18,18.73Z"/><path class="cls-8" d="M28.16,19l-.45.06a.66.66,0,0,0,0,.32l.48-.08A1,1,0,0,1,28.16,19Z"/><path class="cls-8" d="M28.15,19.3a3.65,3.65,0,0,0-.46.07,1.08,1.08,0,0,0,0,.38c.14,0,.4,0,.54,0A1.87,1.87,0,0,1,28.15,19.3Z"/><path class="cls-8" d="M28.75,18.49a3.16,3.16,0,0,0-.43,0,.36.36,0,0,0-.05.19c.1,0,.35,0,.44,0A.41.41,0,0,1,28.75,18.49Z"/><path class="cls-8" d="M28.71,18.67c-.1,0-.31,0-.44,0a.76.76,0,0,0-.05.3h.51A.68.68,0,0,1,28.71,18.67Z"/><path class="cls-8" d="M28.73,19c-.11,0-.37,0-.5,0a.66.66,0,0,0,0,.37l.54,0A.92.92,0,0,1,28.73,19Z"/><path class="cls-8" d="M28.75,19.34l-.55,0a.85.85,0,0,0,0,.39c.19,0,.51,0,.59,0A.91.91,0,0,1,28.75,19.34Z"/><path class="cls-8" d="M27.54,18.4c-.1.07-.16,0-.23.05s-.12.08-.11.12.07,0,.14,0,.1.05.2,0Z"/><path class="cls-8" d="M28,18.24c0,.07-.25,0-.33.07a.71.71,0,0,1,0,.14c.09-.1.3,0,.34,0Z"/><path class="cls-8" d="M28.54,18.32c-.08-.1-.29.05-.37,0s.1.18.16.15a.2.2,0,0,1,.21,0Z"/><path class="cls-8" d="M27.37,18.72a4.73,4.73,0,0,1-.94.88,1.06,1.06,0,0,1,.76.15A1.06,1.06,0,0,1,27.37,18.72Z"/><path class="cls-12" d="M29.08,20c.08,0,0-.15.18-.25a1.43,1.43,0,0,1-.31,0H27.29a3.06,3.06,0,0,1-.86-.16c.12.08.42.21.52.4S27.76,20.77,29.08,20Z"/><path class="cls-13" d="M26.44,20A3.34,3.34,0,0,0,28,21.11,3.34,3.34,0,0,0,29.56,20,.67.67,0,0,1,29,20a.67.67,0,0,1-.52,0A.67.67,0,0,1,28,20a.67.67,0,0,1-.52,0A.67.67,0,0,1,27,20,.67.67,0,0,1,26.44,20Z"/><path class="cls-14" d="M29.27,20.27a.66.66,0,0,1-.34-.05.62.62,0,0,1-.5,0,.6.6,0,0,1-.49,0,.6.6,0,0,1-.49,0,.62.62,0,0,1-.5,0,.41.41,0,0,1-.21.05"/><path class="cls-14" d="M28.76,20.68a.59.59,0,0,1-.3-.06.53.53,0,0,1-.49,0,.53.53,0,0,1-.49,0,.43.43,0,0,1-.24.06"/><path class="cls-15" d="M29.35,20.15a.48.48,0,0,1-.31-.06.53.53,0,0,1-.49,0,.53.53,0,0,1-.49,0,.55.55,0,0,1-.5,0,.53.53,0,0,1-.49,0,.58.58,0,0,1-.45,0"/><path class="cls-15" d="M29.15,20.39a.26.26,0,0,1-.14,0,.56.56,0,0,1-.49,0,.56.56,0,0,1-.49,0,.58.58,0,0,1-.5,0,.56.56,0,0,1-.49,0,.32.32,0,0,1-.18,0"/><path class="cls-15" d="M28.61,20.78a.08.08,0,0,1-.06,0,.6.6,0,0,1-.49,0,.62.62,0,0,1-.5,0,.26.26,0,0,1-.14,0"/><path class="cls-5" d="M30,17.72c-.27-.23-.27-.56-.77-1.1-.17-.19-.38-.48-.61-.75,0,0-.2.06-.17.11a6.82,6.82,0,0,1,.67.85A7.08,7.08,0,0,0,29.78,18C29.84,18,30.11,17.8,30,17.72Z"/><path class="cls-8" d="M28.75,16.39a2.28,2.28,0,0,0-.18.41,1.09,1.09,0,0,1-.52-.5,1.07,1.07,0,0,0,.44-.22A3.56,3.56,0,0,1,28.75,16.39Z"/><path class="cls-8" d="M28.75,16.4s.06,0,.08,0l0,0s.11-.16.13-.13l0,0s.05-.05,0-.1l-.21-.25s0,0-.08,0a.43.43,0,0,0-.17.13s0,.05,0,.07Z"/><path class="cls-5" d="M28.34,17.41c-.11-.1-.17-.19-.23-.13s0,.12.14.23Z"/><path class="cls-5" d="M29.77,16c-.11-.1-.17-.19-.23-.13s0,.12.14.22Z"/><path class="cls-8" d="M28.44,17.72l-.22-.23L29.76,16l.22.23A4.92,4.92,0,0,1,28.44,17.72Z"/><path class="cls-5" d="M27.58,17.68c.05,0,.11.08.13,0s0-.07-.1-.13A3.79,3.79,0,0,1,27,17c-.16-.19-.42-.53-.67-.84S26.06,16,26,16s-.14.15.08.36l.78.74a3.88,3.88,0,0,1,.56.63c.05.11.09.14.12.12s0-.07,0-.14A0,0,0,0,1,27.58,17.68Z"/><path class="cls-8" d="M27.16,16.38a.19.19,0,0,1,.05-.26c.09-.09.21-.11.27-.05l.41.4c.06.06,0,.18-.05.27s-.21.11-.27.05Z"/><path class="cls-8" d="M27.57,16.79c.06.06.18,0,.27-.05s.11-.21.05-.27-.18,0-.27.06A.19.19,0,0,0,27.57,16.79Z"/><path class="cls-5" d="M27.43,16.63c-.38.38-.6.67-.93,1s-.34.26-.41.19,0-.23.19-.42.61-.55,1-.93C27.3,16.44,27.46,16.6,27.43,16.63Z"/><path class="cls-16" d="M28.88,12.06c-.14.23.17.44.63.73s3.4,1.89,3.6,2a1.4,1.4,0,0,1,.4.29c0,.08,0,.12.19.18s.12-.08.06-.1-.13-.08-.1-.13.08,0,.15,0,.14,0,.07-.09-.15-.09-.25-.09a1.38,1.38,0,0,1-.43-.24c-.2-.12-2.92-2.05-3.39-2.34S29,11.84,28.88,12.06Z"/><path class="cls-7" d="M29.32,12.59c.47.29,3.39,1.92,3.58,2"/><path class="cls-7" d="M29.38,12.5c.45.3,3.34,2,3.53,2.11"/><path class="cls-5" d="M31.81,20.55c0,.12,0,.17,0,.24s.06.11.08.2A.11.11,0,0,0,32,21l0,0c.1.05.15,0,.15-.05a.13.13,0,0,0,.09,0,.1.1,0,0,0,0,0s.07,0,.08-.05v0c.12,0,.08-.13,0-.17s-.1-.07-.11-.13A.65.65,0,0,0,31.81,20.55Z"/><path class="cls-5" d="M30.34,20.18c-.1,0-.11.17-.31.15a1.76,1.76,0,0,0-.27.05s-.05.06,0,.09.07.1.24.09a.36.36,0,0,0,.27,0,.78.78,0,0,1,.45,0c.14.05.19-.06.18-.12a.28.28,0,0,1,0-.18A1.29,1.29,0,0,0,30.34,20.18Z"/><path class="cls-5" d="M29.08,15.73c0-.05.13-.08.16-.08a.71.71,0,0,0,.19-.08.33.33,0,0,1,.27,0,1.07,1.07,0,0,0,.27.07,1.52,1.52,0,0,1,.36.1.89.89,0,0,1,.09-.6.72.72,0,0,0,.07-.41c0-.22.18-.32.28-.38l.13-.06a.57.57,0,0,1,.21-.18c.11-.07.08-.16.07-.3-.58-.5.4-1.11.68-.65,0,.07.07.14.06.18a.16.16,0,0,1,0,.11s0,.08,0,.14a.38.38,0,0,1,0,.25.4.4,0,0,0-.08.16.16.16,0,0,1-.1.11h0v.06c0,.07.09.17.17.17a.32.32,0,0,1,.18,0c.11.08.19.05.25.13a.65.65,0,0,1,.2.51.65.65,0,0,1,.25.54c.07-.15.14-.14.19-.26s0-.06.08-.08a.17.17,0,0,1,0-.07c-.08-.08,0-.14-.07-.21a.17.17,0,0,1,0-.17.42.42,0,0,1,.06-.08.06.06,0,0,1,.11,0,.07.07,0,0,1,0,0,.56.56,0,0,1,.13.07l.24.15a.54.54,0,0,1-.09.37.49.49,0,0,0-.14.24.59.59,0,0,1-.1.24,1.5,1.5,0,0,1-.2.23c-.06.05-.08.07-.15.07a.23.23,0,0,1-.19-.09c-.07-.07-.07-.14-.13-.18a1.09,1.09,0,0,1-.28-.35.08.08,0,0,1,0,.05c0,.06,0,.13-.06.16s0,.25,0,.36a4.07,4.07,0,0,1-1.2-.05,3,3,0,0,0,0-.38c0,.11-.14.19-.17.3s-.08.21-.18.21-.22-.12-.32-.16v-.28h-.43c-.06,0-.14,0-.17,0a.2.2,0,0,1-.15,0l0,0Z"/><path class="cls-8" d="M31.39,17.64a2.6,2.6,0,0,1-.24.58c-.1.21,0,.18,0,.24s0,0-.06.15c0,.31,0,.76,0,1a7,7,0,0,1,0,.71,2.11,2.11,0,0,0-.81-.13c0-.36.13-.26.15-.69a9.57,9.57,0,0,0,0-1.41,6,6,0,0,1,.41-1.81,8.32,8.32,0,0,0,1.29,0,4.51,4.51,0,0,1,.23,1.73,5.64,5.64,0,0,0,0,1,3.51,3.51,0,0,1,.15,1.41,1.08,1.08,0,0,1-.32.22,1.57,1.57,0,0,1-.44-.16c0-.3,0-.44,0-.57s-.08-.64,0-1.09C31.68,18.65,31.46,18.33,31.39,17.64Z"/><path class="cls-17" d="M31.19,13.32a.4.4,0,0,0,0,.21.08.08,0,0,0-.15,0,.31.31,0,0,0,.11.25.2.2,0,0,1,0,.12c-.08,0-.08-.09-.17-.13s0-.16-.08-.2,0-.12,0-.16a.2.2,0,0,0,0-.13s0-.26.11-.29.17-.14.27-.13.27-.08.34,0,.13,0,.18.08a.31.31,0,0,1,.12.16s0,.15,0,.19,0,0-.05,0,0,0-.11,0-.12-.07-.18,0-.14.07-.19,0-.09,0-.12,0A.06.06,0,0,0,31.19,13.32Z"/><path d="M31.86,13.4c-.11,0-.13,0-.18,0s0,.08,0,.13,0,.05,0,.07,0,0,0,0,0-.12,0-.1.08,0,.09,0l0,0s0,0,0,0h-.09s0,0,0,0h.09S31.89,13.41,31.86,13.4Z"/><path d="M31.56,13.4c0-.05-.14,0-.18,0s-.08,0,0,0h.15S31.57,13.42,31.56,13.4Z"/><path d="M31.53,13.48s0,0,0,.06,0,0,0,0l-.06,0s0,0-.05,0,0,0,0,0a.08.08,0,0,1,.07,0h.16S31.56,13.47,31.53,13.48Z"/><path d="M31.5,13.74s0,0,0,0,.07,0,.07,0,0,0,0,0,0,0,0,0,.07,0,.09,0,0,0,0,0,0,0,0,0a0,0,0,0,1-.05,0,.09.09,0,0,1-.06,0s-.07,0-.08,0A.06.06,0,0,1,31.5,13.74Z"/><path d="M31.5,13.88a.12.12,0,0,1,.08,0,.09.09,0,0,0,.1,0l.06,0s0,0,0,0a.14.14,0,0,1-.09,0h-.09a.13.13,0,0,1,.08,0h0s.06,0,.08,0,0,0,0,0l-.06,0h-.12l0,0s0,0,0,0S31.49,13.88,31.5,13.88Z"/><path class="cls-5" d="M33.45,14.8s.07,0,.07.08-.08.13-.13.15-.07,0-.07-.07A.3.3,0,0,0,33.45,14.8Z"/><path class="cls-5" d="M33.37,14.71s.08,0,.09.07-.09.15-.13.19-.11,0-.07-.09A.36.36,0,0,0,33.37,14.71Z"/><path class="cls-5" d="M33.28,14.64s.08,0,.1.06a.24.24,0,0,1-.09.18s-.11,0-.1-.06S33.29,14.7,33.28,14.64Z"/><path class="cls-5" d="M33.27,14.59s0,.09,0,.15-.09.14-.16.12,0-.09,0-.12a.27.27,0,0,0,.06-.1l0,0S33.22,14.53,33.27,14.59Z"/><path d="M30.8,15a.53.53,0,0,1,0,.28.74.74,0,0,0-.05.25.47.47,0,0,1-.18.38s.16-.08.13,0c.06-.11.11-.16.11-.2a.47.47,0,0,1,0,.15,3.58,3.58,0,0,0,0-.41,2,2,0,0,1,0-.29A.28.28,0,0,1,30.8,15Z"/><path class="cls-9" d="M31.61,16.21c0,.21,0,.19-.18.19s-.19,0-.19-.2,0-.18.21-.18S31.61,16,31.61,16.21Z"/><path class="cls-5" d="M31.62,16.09a1.41,1.41,0,0,0,.42,0c.08,0,.09,0,.09.14s0,.12-.07.13h-.44Z"/><path class="cls-5" d="M31.24,16.08a1.59,1.59,0,0,1-.38-.06c-.06,0-.06,0-.07.13s0,.15.09.16a2.17,2.17,0,0,0,.36,0Z"/><path class="cls-5" d="M31.56,16.21c0,.15,0,.13-.13.13s-.13,0-.13-.13,0-.14.13-.14S31.56,16.06,31.56,16.21Z"/><path class="cls-9" d="M32.11,16.21c0,.06,0,.06-.07.06s-.08,0-.08,0,0-.05.06-.05S32.1,16.17,32.11,16.21Z"/><path class="cls-9" d="M31.88,16.23c0,.05,0,0-.07,0s-.1,0-.1,0,0-.05.09-.05S31.88,16.18,31.88,16.23Z"/><path class="cls-9" d="M31,16.2s-.06,0-.1,0-.07,0-.06-.06,0,0,.07,0S31,16.14,31,16.2Z"/><path class="cls-9" d="M31.21,16.21c0,.05,0,.05-.07.05s-.09,0-.09,0,0-.06.08-.06S31.21,16.17,31.21,16.21Z"/><circle class="cls-18" cx="28" cy="17.22" r="8.03"/><path class="cls-19" d="M29,9.26c-.47-.14-.35-1.41-2-1.32C27.88,8.21,27.64,9.17,29,9.26Z"/><path class="cls-19" d="M29,9.26c-.49.05-.61,1.32-2.24.91C27.7,10.08,27.65,9.09,29,9.26Z"/><path class="cls-19" d="M27,9.26c-.48,0-.68-1.28-2.29-.77C25.64,8.52,25.65,9.51,27,9.26Z"/><path class="cls-19" d="M27,9.26c-.45.17-.26,1.43-1.94,1.44C25.93,10.38,25.64,9.43,27,9.26Z"/><path class="cls-19" d="M25.05,9.76c-.47.1-1-1.07-2.4-.18C23.55,9.39,23.81,10.34,25.05,9.76Z"/><path class="cls-19" d="M25.05,9.76c-.39.27.11,1.44-1.52,1.87C24.29,11.11,23.78,10.26,25.05,9.76Z"/><path class="cls-19" d="M23.29,10.72c-.44.22-1.22-.79-2.38.43C21.74,10.74,22.23,11.6,23.29,10.72Z"/><path class="cls-19" d="M23.29,10.72c-.32.37.46,1.38-1,2.2C22.89,12.22,22.18,11.53,23.29,10.72Z"/><path class="cls-19" d="M21.82,12.1c-.37.32-1.38-.46-2.2,1C20.32,12.5,21,13.21,21.82,12.1Z"/><path class="cls-19" d="M21.82,12.1c-.21.43.79,1.22-.43,2.38C21.8,13.65,21,13.16,21.82,12.1Z"/><path class="cls-19" d="M20.74,13.8c-.28.39-1.45-.11-1.88,1.52C19.39,14.56,20.23,15.07,20.74,13.8Z"/><path class="cls-19" d="M20.74,13.8c-.1.47,1.07,1,.18,2.4C21.11,15.3,20.16,15,20.74,13.8Z"/><path class="cls-19" d="M20.12,15.71c-.17.45-1.43.26-1.44,1.94C19,16.78,19.94,17.07,20.12,15.71Z"/><path class="cls-19" d="M20.12,15.71c0,.48,1.28.69.77,2.29C20.85,17.08,19.86,17.06,20.12,15.71Z"/><path class="cls-19" d="M20,17.72c0,.48-1.32.6-.91,2.23C19.17,19,20.16,19.08,20,17.72Z"/><path class="cls-19" d="M20,17.72c.14.46,1.41.35,1.31,2C21,18.86,20.08,19.09,20,17.72Z"/><path class="cls-19" d="M20.36,19.69c.07.48-1.13.92-.33,2.4C19.9,21.17,20.87,21,20.36,19.69Z"/><path class="cls-19" d="M20.36,19.69c.25.42,1.45,0,1.78,1.64C21.66,20.54,20.79,21,20.36,19.69Z"/><path class="cls-19" d="M21.22,21.52c.18.44-.87,1.16.27,2.4C21.14,23.06,22,22.63,21.22,21.52Z"/><path class="cls-19" d="M21.22,21.52c.34.34,1.4-.38,2.12,1.14C22.69,22,22,22.68,21.22,21.52Z"/><path class="cls-19" d="M22.5,23.07c.29.39-.55,1.34.86,2.25C22.8,24.59,23.55,24,22.5,23.07Z"/><path class="cls-19" d="M22.5,23.07c.42.24,1.26-.71,2.34.58C24,23.18,23.5,24,22.5,23.07Z"/><path class="cls-19" d="M24.12,24.25c.38.31-.19,1.44,1.4,2C24.8,25.65,25.37,24.84,24.12,24.25Z"/><path class="cls-19" d="M24.12,24.25c.47.13,1.05-1,2.42,0C25.65,24,25.33,24.91,24.12,24.25Z"/><path class="cls-19" d="M26,25c.45.19.17,1.44,1.85,1.56C27,26.18,27.34,25.26,26,25Z"/><path class="cls-19" d="M26,25c.49,0,.77-1.24,2.34-.63C27.4,24.35,27.33,25.34,26,25Z"/><path class="cls-19" d="M28,25.25c.48.08.52,1.36,2.17,1.05C29.25,26.15,29.36,25.17,28,25.25Z"/><path class="cls-19" d="M28,25.25c.47-.11.44-1.38,2.1-1.18C29.19,24.28,29.36,25.25,28,25.25Z"/><path class="cls-19" d="M30,25c.48,0,.84,1.18,2.36.48C31.43,25.56,31.3,24.58,30,25Z"/><path class="cls-19" d="M30,25c.43-.22.08-1.45,1.74-1.67C30.91,23.76,31.32,24.66,30,25Z"/><path class="cls-19" d="M31.86,24.26c.46-.16,1.11.94,2.41-.12C33.4,24.44,33,23.53,31.86,24.26Z"/><path class="cls-19" d="M31.86,24.26c.36-.32-.29-1.42,1.27-2.05C32.44,22.83,33.06,23.6,31.86,24.26Z"/><path class="cls-19" d="M33.49,23.08c.4-.27,1.31.63,2.3-.72C35,22.87,34.43,22.08,33.49,23.08Z"/><path class="cls-19" d="M33.49,23.08c.27-.4-.63-1.31.72-2.3C33.7,21.55,34.49,22.14,33.49,23.08Z"/><path class="cls-19" d="M34.77,21.53c.33-.36,1.43.29,2.06-1.27C36.21,21,35.44,20.33,34.77,21.53Z"/><path class="cls-19" d="M34.77,21.53c.16-.46-.93-1.11.13-2.41C34.59,20,35.51,20.37,34.77,21.53Z"/><path class="cls-19" d="M35.63,19.71c.23-.43,1.45-.07,1.67-1.74C36.88,18.79,36,18.38,35.63,19.71Z"/><path class="cls-19" d="M35.63,19.71c0-.48-1.18-.84-.48-2.36C35.08,18.27,36.05,18.41,35.63,19.71Z"/><path class="cls-19" d="M36,17.74c.11-.47,1.39-.44,1.19-2.11C37,16.53,36,16.36,36,17.74Z"/><path class="cls-19" d="M36,17.74c-.08-.48-1.35-.53-1-2.18C35.11,16.47,36.09,16.37,36,17.74Z"/><path class="cls-19" d="M35.89,15.73c0-.49,1.23-.77.62-2.33C36.53,14.32,35.55,14.4,35.89,15.73Z"/><path class="cls-19" d="M35.89,15.73c-.2-.44-1.45-.17-1.56-1.85C34.7,14.73,35.63,14.38,35.89,15.73Z"/><path class="cls-19" d="M35.27,13.81c-.13-.46,1-1.05,0-2.41C35.54,12.29,34.61,12.61,35.27,13.81Z"/><path class="cls-19" d="M35.27,13.81c-.3-.38-1.44.2-2-1.4C33.87,13.14,34.68,12.57,35.27,13.81Z"/><path class="cls-19" d="M34.19,12.11c-.24-.42.71-1.26-.57-2.34C34.08,10.57,33.25,11.11,34.19,12.11Z"/><path class="cls-19" d="M34.19,12.11c-.38-.29-1.34.55-2.25-.86C32.67,11.81,33.31,11.06,34.19,12.11Z"/><path class="cls-19" d="M32.73,10.73c-.34-.34.37-1.4-1.14-2.12C32.23,9.27,31.57,10,32.73,10.73Z"/><path class="cls-19" d="M32.73,10.73c-.45-.18-1.17.87-2.4-.27C31.18,10.82,31.61,9.93,32.73,10.73Z"/><path class="cls-19" d="M31,9.76c-.41-.25,0-1.45-1.63-1.77C30.12,8.46,29.66,9.34,31,9.76Z"/><path class="cls-19" d="M31,9.76c-.48-.07-.91,1.13-2.39.33C29.49,10.23,29.69,9.26,31,9.76Z"/><path class="cls-20" d="M24.19,20.55c0,.12,0,.17,0,.24s-.06.11-.08.2A.11.11,0,0,1,24,21l0,0c-.1.05-.15,0-.15-.05a.13.13,0,0,1-.09,0,.1.1,0,0,1,0,0c-.05,0-.07,0-.08-.05v0c-.12,0-.08-.13,0-.17s.1-.07.11-.13A.65.65,0,0,1,24.19,20.55Z"/><path class="cls-7" d="M23.65,20.74a.21.21,0,0,0-.07.11"/><path class="cls-7" d="M23.73,20.81c-.06,0-.08.09-.07.13"/><path class="cls-7" d="M23.85,20.87a.11.11,0,0,0-.06.1"/><path class="cls-7" d="M24,20.82a.14.14,0,0,0-.06.2"/><path class="cls-20" d="M25.66,20.18c.1,0,.11.17.31.15a1.76,1.76,0,0,1,.27.05s.05.06,0,.09-.07.1-.24.09a.36.36,0,0,1-.27,0,.78.78,0,0,0-.45,0c-.14.05-.19-.06-.18-.12a.28.28,0,0,0,0-.18A1.29,1.29,0,0,1,25.66,20.18Z"/><path class="cls-5" d="M22.1,15.23c.23-.25.44-.45.55-.55A19,19,0,0,0,25.78,13c.06,0,.23.16.16.21a27.3,27.3,0,0,1-3.1,1.64c-.34.3-.47.4-.53.57s-.18.16-.2.06S22.07,15.26,22.1,15.23Z"/><path class="cls-8" d="M25.43,13.61a2.56,2.56,0,0,1,.05.58,1.32,1.32,0,0,0,.84-.41,1.42,1.42,0,0,1-.44-.44A3.35,3.35,0,0,0,25.43,13.61Z"/><path class="cls-8" d="M25.42,13.63s-.07,0-.08-.05l0,0c.06,0-.07-.24-.1-.22l-.06,0c0-.05,0-.09,0-.13l.35-.22s.06,0,.11,0a.5.5,0,0,1,.16.22c0,.05,0,.08,0,.1Z"/><path class="cls-20" d="M26.93,15.73c0-.05-.14-.08-.16-.08a.81.81,0,0,1-.2-.08.33.33,0,0,0-.27,0,1.07,1.07,0,0,1-.27.07,1.52,1.52,0,0,0-.36.1.89.89,0,0,0-.09-.6.72.72,0,0,1-.07-.41c0-.22-.18-.32-.28-.38l-.13-.06a.57.57,0,0,0-.21-.18c-.11-.07-.08-.16-.07-.3.58-.5-.4-1.11-.68-.65,0,.07-.07.14-.06.18a.16.16,0,0,0,0,.11s0,.08,0,.14a.38.38,0,0,0,0,.25.4.4,0,0,1,.08.16.16.16,0,0,0,.1.11h0v.06c0,.07-.09.17-.17.17a.32.32,0,0,0-.18,0c-.11.08-.19.05-.25.13a.65.65,0,0,0-.2.51.65.65,0,0,0-.25.54c-.07-.15-.14-.14-.19-.26s0-.06-.08-.08a.17.17,0,0,0,0-.07c.08-.08,0-.14.07-.21a.17.17,0,0,0,0-.17.21.21,0,0,0-.06-.08s-.11,0-.11.06a.14.14,0,0,0,0,.06l-.13.06-.25.22a.37.37,0,0,0,.09.28.49.49,0,0,1,.14.24.59.59,0,0,0,.1.24,1.5,1.5,0,0,0,.2.23c.06.05.08.07.15.07a.23.23,0,0,0,.19-.09c.07-.07.07-.14.13-.18a1.09,1.09,0,0,0,.28-.35.08.08,0,0,0,0,.05c0,.06,0,.13.06.16s0,.25,0,.36a4.07,4.07,0,0,0,1.2-.05,3,3,0,0,1,0-.38c0,.11.14.19.17.3s.08.21.18.21.22-.12.32-.16v-.28h.43c.06,0,.14,0,.17,0a.2.2,0,0,0,.15,0l0,0Z"/><path class="cls-7" d="M26.29,15.73h0"/><path class="cls-7" d="M23.77,14.71a2.33,2.33,0,0,0-.06.35c0,.11.09.24.27.1"/><path class="cls-7" d="M23.82,15.23c0,.14,0,.21.16.23"/><path class="cls-7" d="M25.12,14.61c0,.1.09.13.09.24a.36.36,0,0,1-.06.24c-.06.07-.17,0-.21,0"/><path class="cls-7" d="M24.7,14.13a1,1,0,0,1,0,.23"/><path class="cls-7" d="M24.88,14.37c-.11,0-.19.1-.29.1a.37.37,0,0,1,.21,0"/><path class="cls-7" d="M24.13,14.45c.13,0,.17.07.23.07"/><path class="cls-7" d="M24.19,15.12c.17,0,.2-.16.28-.16s.12.1.27.12"/><path class="cls-7" d="M25.3,14.47a.23.23,0,0,1,.09.23"/><path class="cls-7" d="M25.45,15.06a.74.74,0,0,1,.12.48"/><path class="cls-7" d="M24.54,15.85h.11"/><path class="cls-7" d="M24.22,15.76c.17,0,.24-.14.33-.13s.14.07.26.09"/><path class="cls-7" d="M24.18,15.61a.38.38,0,0,0,.28-.12"/><path class="cls-7" d="M24.28,15.49a.38.38,0,0,0,.17-.14"/><path class="cls-7" d="M24.29,15.34c.05,0,.09-.07.11-.09"/><path class="cls-7" d="M24.59,15.26l.06.06"/><path class="cls-7" d="M24.57,15.33a.25.25,0,0,0,.17.1"/><path class="cls-7" d="M25.14,15.1a.14.14,0,0,1-.05.15"/><path class="cls-7" d="M25.14,15.18a.18.18,0,0,1-.1.21"/><path class="cls-7" d="M25.13,15.3a.17.17,0,0,1,0,.22"/><path class="cls-7" d="M25.14,15.46a.22.22,0,0,1-.16.24"/><path class="cls-7" d="M22.85,15.44c.16.16.09.29.39.52"/><path class="cls-8" d="M24.61,17.64a2.6,2.6,0,0,0,.24.58c.1.21,0,.18,0,.24s0,0,.07.15c0,.31,0,.76,0,1a6.76,6.76,0,0,0,0,.71,2,2,0,0,1,.8-.13c0-.36-.13-.26-.15-.69a11.18,11.18,0,0,1,0-1.41,6,6,0,0,0-.41-1.81,8.32,8.32,0,0,1-1.29,0,4.71,4.71,0,0,0-.23,1.73,5.64,5.64,0,0,1,0,1,3.51,3.51,0,0,0-.15,1.41,1.08,1.08,0,0,0,.32.22,1.57,1.57,0,0,0,.44-.16c0-.3,0-.44,0-.57s.08-.64,0-1.09C24.32,18.65,24.54,18.33,24.61,17.64Z"/><path class="cls-7" d="M24.26,16.51c-.07.82-.1,1.49-.18,1.84a3.89,3.89,0,0,0-.1.84c0,.29-.12.94-.13,1.47"/><path class="cls-7" d="M25.59,18.09c-.05.34-.15,1-.18,1.46"/><path class="cls-7" d="M25.52,19.25c0,.2,0,.46,0,.61"/><path class="cls-7" d="M25,16.31a4.11,4.11,0,0,1,.31,1.23"/><path class="cls-7" d="M25.13,16.45a1.79,1.79,0,0,1,0,.23"/><path class="cls-7" d="M25.21,16.54a1,1,0,0,1,0,.15"/><path class="cls-7" d="M24.63,16.4c0,.17,0,.39,0,.5"/><path class="cls-7" d="M23.76,16.83a.94.94,0,0,1,.28-.34l.06.08a1.74,1.74,0,0,0-.38.48"/><path class="cls-7" d="M23.74,15.39c0,.1-.12.15-.14.27a.26.26,0,0,1-.13.12"/><path class="cls-21" d="M24.26,13.22c0-.07-.09-.06-.12-.07-.23-.15,0-.43.18-.38s.22-.07.41,0a.56.56,0,0,1,.33.48c0,.19-.07.36-.08.51a.18.18,0,0,1-.17.18.43.43,0,0,1,0-.17.31.31,0,0,0,.11-.25c0-.08-.11-.07-.16.07l0,0a.51.51,0,0,0,.08-.27c0-.09,0-.21-.13-.17a.15.15,0,0,1-.16,0s-.1,0-.15.05S24.28,13.27,24.26,13.22Z"/><path d="M24.14,13.4c.11,0,.13,0,.18,0s0,.08,0,.13,0,.05,0,.07,0,0,0,0,0-.12,0-.1-.08,0-.09,0l0,0s0,0,0,0h.08s0,0,0,0h-.09S24.11,13.41,24.14,13.4Z"/><path d="M24.44,13.4c0-.05.14,0,.18,0s.08,0,0,0H24.5S24.43,13.42,24.44,13.4Z"/><path d="M24.47,13.48s0,0,0,.06,0,0,0,0l.06,0s0,0,.05,0,0,0,0,0a.08.08,0,0,0-.07,0h-.16S24.44,13.47,24.47,13.48Z"/><path d="M24.5,13.74s0,0,0,0-.07,0-.07,0,0,0,0,0,0,0,0,0-.07,0-.09,0,0,0,0,0,0,0,0,0a0,0,0,0,0,.05,0,.09.09,0,0,0,.06,0s.07,0,.08,0A.06.06,0,0,0,24.5,13.74Z"/><path d="M24.5,13.88a.12.12,0,0,0-.08,0,.09.09,0,0,1-.1,0l-.06,0s0,0,0,0a.14.14,0,0,0,.09,0h.09a.13.13,0,0,0-.08,0h0s-.06,0-.08,0,0,0,0,0l.06,0h.12l0,0s0,0,0,0S24.51,13.88,24.5,13.88Z"/><path class="cls-7" d="M23.05,15.21a.27.27,0,0,1-.08.1"/><path class="cls-7" d="M22.77,15.14c0-.12.12-.14.18-.13a.16.16,0,0,1,.06-.15s0,0,0-.06"/><path class="cls-20" d="M22.55,14.77s-.08,0-.08.08.09.13.13.15.07,0,.07-.07A.34.34,0,0,1,22.55,14.77Z"/><path class="cls-20" d="M22.63,14.68c-.05,0-.08,0-.09.07s.08.15.12.19.12,0,.08-.09A.26.26,0,0,1,22.63,14.68Z"/><path class="cls-20" d="M22.71,14.61s-.08,0-.09.06.06.15.09.18.1.05.1-.06A.29.29,0,0,1,22.71,14.61Z"/><path class="cls-20" d="M22.72,14.56s0,.09,0,.15.09.14.15.12,0-.09,0-.12a.2.2,0,0,1-.07-.1l0,0S22.78,14.5,22.72,14.56Z"/><path d="M25.2,15a.53.53,0,0,0,0,.28.74.74,0,0,1,.05.25.47.47,0,0,0,.18.38s-.16-.08-.13,0c-.06-.11-.11-.16-.11-.2a.47.47,0,0,0,0,.15,3.58,3.58,0,0,1,0-.41,2,2,0,0,0,0-.29A.28.28,0,0,0,25.2,15Z"/><path class="cls-7" d="M23.86,15.4a.16.16,0,0,0,0,.12"/><path class="cls-7" d="M24.44,14.39a.5.5,0,0,0-.24-.06"/><path class="cls-7" d="M23.89,15.57l.08,0"/><path class="cls-7" d="M24.37,14.16c0,.17,0,.11.09.24"/><path class="cls-7" d="M24.64,14a.5.5,0,0,1-.27.1"/><path class="cls-7" d="M24.91,14.25l.19,0"/><path class="cls-7" d="M25.67,15.77v0"/><path class="cls-9" d="M24.39,16.21c0,.21,0,.19.18.19s.19,0,.19-.2,0-.18-.21-.18S24.39,16,24.39,16.21Z"/><path class="cls-5" d="M24.38,16.09a1.41,1.41,0,0,1-.42,0c-.08,0-.09,0-.09.14s0,.12.07.13h.44Z"/><path class="cls-5" d="M24.76,16.08a1.59,1.59,0,0,0,.38-.06c.06,0,.06,0,.07.13s0,.15-.09.16a2.17,2.17,0,0,1-.36,0Z"/><path class="cls-5" d="M24.44,16.21c0,.15,0,.13.13.13s.13,0,.13-.13,0-.14-.13-.14S24.44,16.06,24.44,16.21Z"/><path class="cls-9" d="M23.89,16.21c0,.06,0,.06.07.06s.08,0,.08,0,0-.05-.06-.05S23.9,16.17,23.89,16.21Z"/><path class="cls-9" d="M24.12,16.23c0,.05,0,0,.08,0s.09,0,.09,0,0-.05-.09-.05S24.12,16.18,24.12,16.23Z"/><path class="cls-9" d="M25,16.2s.06,0,.1,0,.07,0,.06-.06,0,0-.07,0S25,16.14,25,16.2Z"/><path class="cls-9" d="M24.79,16.21c0,.05,0,.05.07.05s.09,0,.09,0,0-.06-.08-.06S24.79,16.17,24.79,16.21Z"/><path class="cls-7" d="M23.81,18.77c0,.1-.1.18-.13.26"/><path class="cls-7" d="M24.32,18.7c0,.05,0,.09,0,.14"/><path class="cls-7" d="M24.61,17.64c0-.11,0-.24,0-.37"/><path class="cls-7" d="M26.25,20.47c0-.1-.14-.06-.21-.06"/><path class="cls-7" d="M26.64,15.73s0,0,0,0a.16.16,0,0,1-.1,0s-.11,0-.15,0"/><path class="cls-7" d="M32.35,20.74a.21.21,0,0,1,.07.11"/><path class="cls-7" d="M32.27,20.81c.06,0,.08.09.07.13"/><path class="cls-7" d="M32.15,20.87a.11.11,0,0,1,.06.1"/><path class="cls-7" d="M32,20.82a.14.14,0,0,1,.06.2"/><path class="cls-7" d="M29.71,15.73h0"/><path class="cls-7" d="M32.23,14.71a2.33,2.33,0,0,1,.06.35c0,.11-.09.24-.27.1"/><path class="cls-7" d="M32.18,15.23c0,.14,0,.21-.16.23"/><path class="cls-7" d="M30.88,14.61c0,.1-.09.13-.09.24a.36.36,0,0,0,.06.24c.06.07.17,0,.21,0"/><path class="cls-7" d="M31.3,14.13a1,1,0,0,0,0,.23"/><path class="cls-7" d="M31.12,14.37c.11,0,.19.1.29.1a.37.37,0,0,0-.21,0"/><path class="cls-7" d="M31.87,14.45c-.13,0-.17.07-.22.07"/><path class="cls-7" d="M31.81,15.12c-.17,0-.2-.16-.28-.16s-.12.1-.27.12"/><path class="cls-7" d="M30.7,14.47a.23.23,0,0,0-.09.23"/><path class="cls-7" d="M30.55,15.06a.74.74,0,0,0-.12.48"/><path class="cls-7" d="M31.46,15.85h-.11"/><path class="cls-7" d="M31.78,15.76c-.17,0-.24-.14-.33-.13s-.14.07-.26.09"/><path class="cls-7" d="M31.82,15.61a.38.38,0,0,1-.28-.12"/><path class="cls-7" d="M31.72,15.49a.38.38,0,0,1-.17-.14"/><path class="cls-7" d="M31.71,15.34c-.05,0-.09-.07-.11-.09"/><path class="cls-7" d="M31.41,15.26l-.06.06"/><path class="cls-7" d="M31.43,15.33a.25.25,0,0,1-.17.1"/><path class="cls-7" d="M30.86,15.1a.14.14,0,0,0,.05.15"/><path class="cls-7" d="M30.86,15.18a.18.18,0,0,0,.1.21"/><path class="cls-7" d="M30.87,15.3a.17.17,0,0,0,0,.22"/><path class="cls-7" d="M30.86,15.46a.22.22,0,0,0,.16.24"/><path class="cls-7" d="M33.15,15.44c-.16.16-.09.29-.39.52"/><path class="cls-7" d="M31.74,16.51c.07.82.1,1.49.18,1.84a3.89,3.89,0,0,1,.1.84c0,.29.12.94.13,1.47"/><path class="cls-7" d="M30.41,18.09c.05.34.15,1,.18,1.46"/><path class="cls-7" d="M30.48,19.25c0,.2,0,.46,0,.61"/><path class="cls-7" d="M31,16.31a4.11,4.11,0,0,0-.31,1.23"/><path class="cls-7" d="M30.87,16.45a1.79,1.79,0,0,0,0,.23"/><path class="cls-7" d="M30.79,16.54a1,1,0,0,0,0,.15"/><path class="cls-7" d="M31.37,16.4c0,.17,0,.39,0,.5"/><path class="cls-7" d="M32.24,16.83a.94.94,0,0,0-.28-.34l-.06.08a2,2,0,0,1,.39.48"/><path class="cls-7" d="M32.26,15.39c0,.1.12.15.14.27a.26.26,0,0,0,.13.12"/><path class="cls-7" d="M33,15.21a.27.27,0,0,0,.08.1"/><path class="cls-7" d="M33.23,15.14c0-.12-.12-.14-.18-.13s0-.12,0-.15a.19.19,0,0,0,0-.09"/><path class="cls-7" d="M32.14,15.4a.16.16,0,0,1,0,.12"/><path class="cls-7" d="M31.56,14.39a.5.5,0,0,1,.24-.06"/><path class="cls-7" d="M32.11,15.57l-.08,0"/><path class="cls-7" d="M31.63,14.16c0,.17,0,.11-.09.24"/><path class="cls-7" d="M31.36,14a.5.5,0,0,0,.27.1"/><path class="cls-7" d="M31.09,14.25l-.19,0"/><path class="cls-7" d="M30.33,15.77v0"/><path class="cls-7" d="M32.19,18.77c.05.1.1.18.13.26"/><path class="cls-7" d="M31.68,18.7c0,.05,0,.09,0,.14"/><path class="cls-7" d="M31.39,17.64c0-.11,0-.24,0-.37"/><path class="cls-7" d="M29.75,20.47c0-.1.14-.06.21-.06"/><path class="cls-7" d="M29.36,15.73s0,0,0,0a.16.16,0,0,0,.1,0s.11,0,.15,0"/><path class="cls-22" d="M28,22.73a3.88,3.88,0,0,0,.95-.09v.14l-.27,0c0,.37.27.39.39.35a3.86,3.86,0,0,1,.49-.1.38.38,0,0,0,.24-.61.75.75,0,0,1-.07-.12l.43-.24c1.07.48,1.13.07,1.21-.08a2.24,2.24,0,0,1,.25-.36c.08-.1.16-.22,0-.34a1.39,1.39,0,0,0-1.46,0,2.59,2.59,0,0,1-.42-.06.39.39,0,0,0-.36,0,1.59,1.59,0,0,1-.49.23c-.17.05-.16.27-.1.46a3.16,3.16,0,0,1-.79.1,3.1,3.1,0,0,1-.79-.1c.06-.19.07-.41-.1-.46a1.59,1.59,0,0,1-.49-.23.39.39,0,0,0-.36,0,2.78,2.78,0,0,1-.42.06,1.39,1.39,0,0,0-1.46,0c-.17.12-.08.24,0,.34a3.14,3.14,0,0,1,.25.36c.08.15.14.56,1.2.08l.44.24a.75.75,0,0,1-.07.12.38.38,0,0,0,.24.61,3.86,3.86,0,0,1,.49.1c.12,0,.4,0,.39-.35l-.27,0v-.14A3.88,3.88,0,0,0,28,22.73Z"/><path class="cls-23" d="M25.85,22.1a1.35,1.35,0,0,0-.77-.24c-.22,0-.45.12-.36.29"/><path class="cls-23" d="M26.25,21.24c.26-.06.37.13.3.37l0,.08"/><path class="cls-23" d="M26.29,22.34a3.28,3.28,0,0,0,.78.3"/><path class="cls-23" d="M27.23,22a4.1,4.1,0,0,1-1.26-.6l-.11-.06"/><path class="cls-23" d="M27.07,22.78a1,1,0,0,1-.54-.19c.2.21.07.51-.16.45"/><path class="cls-23" d="M30.18,22.1a1.38,1.38,0,0,1,.78-.24c.22,0,.45.12.36.29"/><path class="cls-23" d="M29.79,21.24c-.26-.06-.37.13-.3.37l0,.08"/><path class="cls-23" d="M29.75,22.34a3.28,3.28,0,0,1-.78.3"/><path class="cls-23" d="M28.81,22a4.1,4.1,0,0,0,1.26-.6l.1-.06"/><path class="cls-23" d="M29,22.78a1,1,0,0,0,.54-.19c-.2.21-.07.51.16.45"/><path d="M24.65,21.37a.06.06,0,0,0,0,.09s.06.05.15,0a.16.16,0,0,1,.16.09.14.14,0,0,1-.09.19l-.1,0s0,0,0,0h0l-.06-.14h0a.15.15,0,0,0,.19.07.08.08,0,0,0,.05-.1s-.07-.05-.15-.05a.15.15,0,0,1-.17-.08.14.14,0,0,1,.07-.18l.1,0a0,0,0,0,0,0,0h0l.06.13h0A.14.14,0,0,0,24.65,21.37Z"/><path d="M25.37,21.57l0-.23s0-.05,0-.06h.13v0s0,0,0,0l0,.23c0,.08,0,.17-.18.15s-.18-.07-.17-.18l0-.24s0-.05,0-.05v0l.22,0h0a.06.06,0,0,0-.06.05l0,.23c0,.08,0,.14.09.14S25.36,21.66,25.37,21.57Z"/><path d="M25.5,21.64l.08-.18.11,0,0,.09c.08,0,.11,0,.13,0l0-.07s0-.06,0-.06l-.05,0s0,0,0,0l0,.07-.11,0,0-.06s0-.06,0-.07v0l.21.09c.08,0,.14.09.11.16a.1.1,0,0,1-.13.06.13.13,0,0,1,.07.16.15.15,0,0,1-.2.06l-.23-.1h0a.06.06,0,0,0,.08,0l0-.06.11,0,0,.09s0,0,0,0l0,0a.06.06,0,0,0,.07,0l0-.07a.07.07,0,0,0,0-.09l-.06,0,0,.08Z"/><path d="M26.33,22l.11-.19a.05.05,0,0,0,0-.08h0l.11.07h0a.05.05,0,0,0-.07,0l-.11.19c-.05.07-.11.14-.24.07a.18.18,0,0,1-.08-.24l.13-.2s0-.06,0-.08h0l.19.12h0s-.06,0-.08,0l-.12.2c0,.07,0,.13,0,.17S26.28,22.11,26.33,22Z"/><path d="M26.93,22.4s0,.06,0,.08h0l-.2-.08v0s0,0,.07,0l.12-.3-.31.3h0V21.9l-.13.33s0,.05,0,.07h0l-.13,0h0s.06,0,.07,0l.12-.31s0-.06,0-.07v0l.17.07v.35L27,22l.16.07h0a.06.06,0,0,0-.08,0Z"/><path d="M27.72,22.29v.1c.12,0,.14,0,.14-.1a.08.08,0,0,0-.08-.1s-.05,0-.05,0v.07H27.6v-.07a.06.06,0,0,0-.06,0v0l.23,0c.1,0,.19,0,.18.13s-.05.1-.11.11l.12.22h-.11l-.13-.23h0v.15s0,.05.05.06h-.22v0a.05.05,0,0,0,.06,0v-.27Z"/><path d="M28.22,22.47h.07c-.07-.16-.08-.16-.08-.16l-.05.17h.06v0h-.07s0,0,0,.06,0,.05.05.06H28a.1.1,0,0,0,.05-.06l.14-.41h0l.19.38s0,.05.06.05v0h-.24s.08,0,.06-.06l0-.07h-.09Z"/><path d="M28.74,22.58h0s.06,0,.05-.07l-.09-.32s-.05,0-.08,0v0L29,22l0,.14h0a.14.14,0,0,0-.15-.09l-.07,0s0,0,0,0l0,.15s.1,0,.09-.12h0l.06.22h0c0-.11-.11-.09-.13-.08l0,.15a.05.05,0,0,0,.06,0h0Z"/><path d="M29.25,21.93h0s-.05,0,0,.08l.12.29a.05.05,0,0,0,.06,0l.05,0a.14.14,0,0,0,.08-.17h0l0,.15-.38.16h0s.05,0,0-.08l-.13-.31A.06.06,0,0,0,29,22h0Z"/><path d="M29.85,22.14c-.07,0-.15,0-.21-.13s-.08-.21,0-.25.15,0,.21.13.08.21,0,.25h0a.23.23,0,1,0-.24-.4.21.21,0,0,0-.08.31.22.22,0,0,0,.32.09Z"/><path d="M30.46,21.39s0,0-.07,0v0l.39-.09,0,.14h0a.13.13,0,0,0-.15-.09l-.06,0s0,0,0,.05l0,.14s.1,0,.09-.12h0l.06.22h0c0-.11-.11-.09-.13-.08l0,.15s0,0,0,0l.06,0a.15.15,0,0,0,.12-.15h0v.15l-.4.1v0s.06,0,.05-.06Z"/><path d="M31.12,21.72c-.08,0-.09-.13-.06-.24s.1-.2.17-.18.09.12.06.24-.1.2-.17.18h0a.22.22,0,0,0,.29-.16.22.22,0,0,0-.17-.28.23.23,0,1,0-.12.44Z"/><path d="M27.16,22.4l0-.18h.11l0,.09c.09,0,.11,0,.12-.05l0-.07s0-.05,0-.05h0s0,0,0,0l0,.08H27.2v-.07a.06.06,0,0,0,0-.07h0l.22.05c.09,0,.16.07.14.14a.12.12,0,0,1-.13.08c.06,0,.12.07.1.14s-.1.11-.18.1l-.25-.06h0s.06,0,.07,0l0-.07.11,0,0,.1s0,0,0,0h0s.06,0,.07-.05v-.07a.06.06,0,0,0,0-.08h-.06l0,.08Z"/><path d="M30,21.64l0,.09c.11-.05.1-.1.08-.15a.09.09,0,0,0-.12,0s0,0,0,0l0,.06-.1.06,0-.06s-.05,0-.08,0h0l.21-.1c.1-.05.19-.06.23,0a.12.12,0,0,1-.05.15l.22.13h0l-.12.06-.23-.14h0l.07.14a.05.05,0,0,0,.07,0h0L30,22h0s0,0,0-.07l-.12-.24Z"/><rect class="cls-24" x="0.62" y="0.62" width="54.97" height="32.98"/></g></g></svg>