<svg xmlns="http://www.w3.org/2000/svg" viewBox="0 0 56.21 42.89"><defs><style>.cls-1{fill:#fff;}.cls-2{fill:#da121a;}.cls-3{fill:#072357;}.cls-4{fill:none;stroke:#eaeef2;stroke-miterlimit:10;stroke-width:1.24px;}</style></defs><title>flag-pana_titulo</title><g id="Layer_2" data-name="Layer 2"><g id="Capa_3" data-name="Capa 3"><rect class="cls-1" x="28.18" y="21.31" width="27.56" height="20.96"/><rect class="cls-1" x="0.62" y="0.62" width="27.56" height="20.96"/><rect class="cls-2" x="28.18" y="0.62" width="27.56" height="20.96"/><rect class="cls-3" x="0.62" y="21.31" width="27.56" height="20.96"/><polygon class="cls-3" points="14.4 8.43 13.34 11.73 9.84 11.73 12.68 13.79 11.59 17.09 14.4 15.04 17.21 17.09 16.14 13.76 18.96 11.74 15.48 11.74 14.4 8.43"/><polygon class="cls-2" points="41.96 24.82 40.9 28.13 37.4 28.13 40.24 30.19 39.15 33.49 41.96 31.44 44.77 33.49 43.7 30.16 46.52 28.14 43.04 28.14 41.96 24.82"/><rect class="cls-4" x="0.62" y="0.62" width="54.97" height="41.65"/></g></g></svg>