<svg xmlns="http://www.w3.org/2000/svg" viewBox="0 0 56.21 34.23"><defs><style>.cls-1{fill:#003876;}.cls-2,.cls-4{fill:#fff;}.cls-3{fill:#ffce46;}.cls-14,.cls-4{stroke:#000;}.cls-4{stroke-width:0.05px;}.cls-5{fill:#ee3e42;}.cls-6{fill:#b3d2ee;}.cls-7{fill:#4e2f90;}.cls-8{fill:#009bdb;}.cls-9{fill:#00ac8d;}.cls-10{fill:#fff100;}.cls-11{fill:#f9aa53;}.cls-12{fill:#ec1b2e;}.cls-13{fill:#ffe01a;}.cls-14,.cls-15{fill:none;}.cls-14{stroke-width:0.08px;}.cls-15{stroke:#eaeef2;stroke-miterlimit:10;stroke-width:1.24px;}</style></defs><title>flag_nic_titulo</title><g id="Layer_2" data-name="Layer 2"><g id="Capa_3" data-name="Capa 3"><rect class="cls-1" x="0.62" y="0.62" width="54.97" height="32.98"/><rect class="cls-2" x="0.62" y="11.61" width="54.97" height="10.99"/><polygon class="cls-1" points="31.54 19.05 28.11 13.19 24.67 19.05 31.54 19.05"/><polygon class="cls-3" points="24.78 18.98 28.11 13.33 31.43 18.98 24.78 18.98"/><polygon class="cls-1" points="24.89 18.91 28.11 13.47 31.32 18.91 24.89 18.91"/><polygon class="cls-4" points="31.21 18.84 28.11 13.61 25 18.84 31.21 18.84"/><path class="cls-5" d="M27.91,16.49h0s0,0,0,0a.5.5,0,0,1,.05-.28.19.19,0,0,1,.14,0s.05,0,0-.06a.32.32,0,0,0-.14,0c0-.08,0-.15.12-.15h.14c.08,0,.16.11.16.22v.32c0,.05,0,.06-.07.06h-.09s0,0,0,0,0,.09,0,.13,0,.06-.09,0S28,16.64,27.91,16.49Z"/><polygon class="cls-3" points="23.42 16.24 23.38 16.55 23.52 16.57 23.56 16.29 23.68 16.31 23.64 16.59 23.8 16.61 23.85 16.3 23.95 16.32 23.89 16.76 23.25 16.66 23.32 16.22 23.42 16.24"/><path class="cls-3" d="M23.6,15.87l.11,0,0-.11a.1.1,0,0,0-.08-.13.1.1,0,0,0-.12.06l0,.12.08,0,0,.11-.19-.06.08-.25a.18.18,0,0,1,.25-.12.2.2,0,0,1,.14.24l0,.14L24,16l0,.11L23.57,16Z"/><path class="cls-3" d="M24.2,15.25a.1.1,0,0,0-.05-.15l-.38-.19.05-.11.38.18a.21.21,0,0,1,.1.31.22.22,0,0,1-.31.12l-.38-.19.06-.11.38.19A.1.1,0,0,0,24.2,15.25Z"/><path class="cls-3" d="M24.41,14.68l.07.05.1-.14a.07.07,0,0,0,0-.1.08.08,0,0,0-.11,0l-.1.14.07,0-.08.1-.21-.15.07-.11.06.05.1-.13a.07.07,0,0,0,0-.1.07.07,0,0,0-.1,0l-.09.12.05,0-.07.11L24,14.52l.14-.2c.07-.09.18-.15.27-.09a.21.21,0,0,1,.07.13.2.2,0,0,1,.17,0,.17.17,0,0,1,0,.27l-.16.23-.17-.12Z"/><polygon class="cls-3" points="24.55 13.79 24.93 14.16 25.13 13.95 25.21 14.04 24.92 14.33 24.46 13.88 24.55 13.79"/><rect class="cls-3" x="25.14" y="13.3" width="0.13" height="0.64" transform="translate(-2.94 18.96) rotate(-39.13)"/><path class="cls-3" d="M25.74,13.12a.12.12,0,0,0-.17,0c-.09.06-.08.15,0,.26s.16.15.23.1a.12.12,0,0,0,.05-.17l.1-.06a.23.23,0,0,1-.1.33c-.12.08-.28,0-.38-.14s-.08-.33.05-.41a.22.22,0,0,1,.32.06Z"/><path class="cls-3" d="M27.4,12.6l0,.22h.1s.15,0,.13-.24-.13-.18-.17-.18h-.11l0,.2-.11,0,0-.31.24,0c.08,0,.25,0,.29.27s-.05.35-.2.37l-.26,0,0-.33Z"/><polygon class="cls-3" points="28.53 12.36 28.21 12.35 28.21 12.49 28.49 12.51 28.49 12.63 28.2 12.61 28.19 12.78 28.51 12.8 28.5 12.9 28.06 12.88 28.09 12.23 28.54 12.26 28.53 12.36"/><polygon class="cls-3" points="29.46 12.43 29.56 12.87 29.68 12.5 29.8 12.54 29.61 13.15 29.49 13.11 29.38 12.65 29.25 13.04 29.13 13 29.33 12.38 29.46 12.43"/><rect class="cls-3" x="29.68" y="12.91" width="0.64" height="0.13" transform="translate(5.53 34.64) rotate(-64.89)"/><path class="cls-3" d="M30.69,13.24s0-.11-.05-.17-.17,0-.23.1-.07.22,0,.26a.12.12,0,0,0,.17,0l.09.06a.22.22,0,0,1-.33.06c-.13-.08-.14-.24,0-.41A.28.28,0,0,1,30.7,13a.23.23,0,0,1,.09.32Z"/><path class="cls-3" d="M32.58,15.7a.15.15,0,0,0,.05-.16c0-.1-.13-.13-.25-.08s-.19.13-.16.22a.14.14,0,0,0,.18.09l0-.12.09,0,.08.22-.31.1,0-.07.07,0a.2.2,0,0,1-.14-.13c-.06-.14,0-.3.22-.36a.27.27,0,0,1,.39.15.23.23,0,0,1-.12.3Z"/><path class="cls-3" d="M32.4,16.37a.12.12,0,0,0,.13.1L33,16.4l0,.12-.42.07c-.1,0-.22,0-.25-.2a.21.21,0,0,1,.18-.27l.42-.07,0,.13-.42.07A.1.1,0,0,0,32.4,16.37Z"/><path class="cls-3" d="M24.12,19.53l.05.08.18-.21-.26.07,0,.06-.09,0L24,19.5l-.14,0-.06-.1.66-.17.07.12-.44.52L24,19.79l.09-.1L24,19.58Z"/><polygon class="cls-3" points="24.39 20.31 24.68 19.89 24.31 20.22 24.23 20.13 24.71 19.7 24.84 19.84 24.54 20.25 24.98 20 25.11 20.14 24.63 20.57 24.55 20.48 24.91 20.15 24.47 20.4 24.39 20.31"/><polygon class="cls-3" points="25.57 20.67 25.32 20.47 25.23 20.59 25.46 20.76 25.39 20.86 25.16 20.68 25.05 20.81 25.31 21.01 25.24 21.09 24.89 20.82 25.28 20.31 25.64 20.58 25.57 20.67"/><path class="cls-3" d="M25.81,21l.11.06s.08,0,.11,0a.1.1,0,0,0,0-.12l-.14-.08-.08.15,0,0,0,.1-.05,0-.12.22-.11-.06.31-.56.31.17a.16.16,0,0,1,0,.23.14.14,0,0,1-.16.08.12.12,0,0,1,0,.15l-.09.16-.1-.06.07-.13c0-.07,0-.1,0-.14l-.06,0Z"/><rect class="cls-3" x="26" y="21.27" width="0.64" height="0.13" transform="translate(-3.41 37.59) rotate(-67.68)"/><path class="cls-3" d="M27,21.46a.12.12,0,0,0-.1-.14c-.1,0-.16,0-.2.17s0,.22.09.24a.14.14,0,0,0,.16-.08l.1,0a.22.22,0,0,1-.3.15c-.14,0-.21-.19-.16-.37s.19-.29.34-.24a.24.24,0,0,1,.18.27Z"/><path class="cls-3" d="M28.92,21.52a.12.12,0,0,0-.15-.08c-.1,0-.13.1-.11.23s.09.2.18.18a.12.12,0,0,0,.11-.13l.11,0a.23.23,0,0,1-.21.26c-.15,0-.27-.08-.3-.28s.05-.33.2-.35a.23.23,0,0,1,.28.18Z"/><polygon class="cls-3" points="29.62 21.22 29.31 21.32 29.36 21.45 29.63 21.37 29.67 21.48 29.39 21.57 29.45 21.73 29.75 21.63 29.78 21.73 29.35 21.87 29.16 21.25 29.58 21.12 29.62 21.22"/><polygon class="cls-3" points="29.89 20.99 30.27 21.23 30.09 20.89 30.21 20.83 30.5 21.4 30.39 21.46 29.98 21.2 30.17 21.57 30.05 21.63 29.76 21.05 29.89 20.99"/><polygon class="cls-3" points="30.91 21.14 30.59 20.71 30.44 20.82 30.38 20.73 30.78 20.44 30.84 20.53 30.69 20.64 31 21.07 30.91 21.14"/><polygon class="cls-3" points="31.86 19.14 32.33 19.38 32.46 19.13 32.56 19.18 32.37 19.55 31.8 19.26 31.86 19.14"/><path class="cls-3" d="M27.58,21.75h.09l-.06-.27-.11.25h.08l0,.11h-.1l-.05.12h-.12l.27-.62h.14l.14.67-.12,0,0-.13h-.13Z"/><path class="cls-3" d="M31.87,19.87l.05-.07-.26-.08.17.22,0-.07.09.07L31.9,20l.08.1-.07.1-.41-.54.09-.12.64.21-.07.1-.13,0-.07.1Z"/><path class="cls-3" d="M31.24,20.4l.09-.08a.08.08,0,0,0,0-.12.08.08,0,0,0-.12,0l-.11.12.12.12,0,0,.09.08,0,0,.18.18-.1.09-.45-.46.25-.25c.06-.06.16,0,.23,0s.06.16,0,.18.1,0,.16,0l.12.13-.08.09-.11-.11c-.06-.06-.1-.05-.14,0l-.05.05Z"/><path class="cls-3" d="M32.6,17.1v.09l.26-.08L32.6,17v.07h-.11V17l-.13,0v-.12L33,17v.14l-.65.2v-.12l.13,0V17.1Z"/><path class="cls-3" d="M32,14.92l0,.07.19-.19-.27,0,0,.07-.1.05-.05-.09-.13,0-.06-.1.66-.14.07.13-.46.49-.06-.1.09-.1L31.92,15Z"/><path class="cls-3" d="M31.07,13.76l.07.06.11-.25-.23.14.05,0-.07.08-.08-.07-.12.07-.09-.08.59-.35.1.1-.28.62L31,14l.05-.12L31,13.84Z"/><path class="cls-3" d="M26.37,13l.08,0-.17-.21,0,.27.07,0,0,.1-.1,0,0,.14-.11.05-.06-.68.13-.05.44.51-.12.05-.08-.11-.12,0Z"/><path class="cls-3" d="M23.52,17.27v-.13a.08.08,0,0,0-.09-.07.09.09,0,0,0-.09.08v.17h.17v-.05h.11v.06h.25v.13h-.64v-.36c0-.08.09-.14.18-.14a.15.15,0,0,1,.15.11s.05-.1.13-.1h.18v.13h-.15c-.08,0-.1,0-.1.1v.07Z"/><path class="cls-3" d="M31.65,14.17l.08.1a.09.09,0,0,0,.12,0,.08.08,0,0,0,0-.12l-.1-.12-.14.1,0,0-.08.08,0,0-.19.15-.08-.1.5-.4.22.27a.17.17,0,0,1-.05.23.15.15,0,0,1-.19,0s0,.1,0,.15l-.14.12-.08-.1.12-.1c.06,0,0-.09,0-.14l0-.05Z"/><path class="cls-3" d="M23.73,18.44a.11.11,0,1,0-.11-.11A.11.11,0,0,0,23.73,18.44Z"/><circle class="cls-3" cx="32.48" cy="18.33" r="0.11"/><path class="cls-6" d="M26.71,16l-.12.21,1,.2a.15.15,0,0,1,0-.07Z"/><path class="cls-6" d="M27,15.41l-.11.18.73.33,0,0Z"/><path class="cls-6" d="M26.89,15.66l-.11.18.81.31s0,0,0-.07Z"/><path class="cls-6" d="M28.52,16.68l1.15.8.46,0-1.57-.84A.21.21,0,0,1,28.52,16.68Z"/><path class="cls-6" d="M28.06,17,28,17.5h.11V17h-.05Z"/><path class="cls-6" d="M28.14,15.61l.13-1.72-.17-.28-.07.12.06,1.88h.05Z"/><path class="cls-6" d="M30.25,17.23,30,16.79l-1.39-.3,0,.08Z"/><path class="cls-6" d="M29.8,16.46l-.15-.25-1,.15a.22.22,0,0,1,0,.08Z"/><path class="cls-6" d="M29.57,16.07l-.12-.19-.83.31s0,0,0,.08Z"/><path class="cls-6" d="M29.35,15.7l-.08-.13-.68.47s0,0,0,.06Z"/><path class="cls-6" d="M29.2,15.45l-.1-.17-.57.62,0,.06Z"/><path class="cls-6" d="M29.06,15.21,29,15.1l-.53.69,0,.05Z"/><path class="cls-6" d="M28.93,15l-.06-.11-.5.81,0,0Z"/><path class="cls-6" d="M28.78,14.75l-.09-.16-.4,1.07.05,0Z"/><path class="cls-6" d="M28.57,14.39l-.13-.22-.26,1.45h0Z"/><path class="cls-6" d="M27.86,14l-.13.23L28,15.62h0Z"/><path class="cls-6" d="M27.61,14.44l-.1.17.4,1.05,0,0Z"/><path class="cls-6" d="M27.41,14.77l-.08.14.52.79,0,0Z"/><path class="cls-6" d="M27.25,15.05l-.13.22.63.51,0,0Z"/><path class="cls-6" d="M26.39,16.48l-.17.3,1.4-.27s0,0,0,0Z"/><path class="cls-6" d="M26,17.17l-.19.32,1.85-.88,0-.05Z"/><path class="cls-6" d="M26.76,17.26l.08.13.85-.7v0Z"/><path class="cls-6" d="M26.91,17.5h.2l.65-.73,0,0Z"/><path class="cls-6" d="M27.53,17.22h.15l.17-.35-.05,0Z"/><path class="cls-6" d="M27.77,17.27a1.58,1.58,0,0,1,.07.16l.13-.5,0,0Z"/><path class="cls-6" d="M28.23,17.5h.15l-.16-.56h0Z"/><path class="cls-6" d="M28.53,17.49h.18l-.41-.59-.05,0Z"/><path class="cls-6" d="M28.83,17.49h.25l-.68-.66,0,0Z"/><path class="cls-6" d="M29.18,17.49h.28l-1-.76,0,.06Z"/><path class="cls-7" d="M30,16.83a1.84,1.84,0,0,1,0,.41,2.09,2.09,0,0,1,0,.25h0a2.11,2.11,0,0,0,0-.25,3,3,0,0,0,0-.31Z"/><path class="cls-7" d="M29.32,15.66a2,2,0,0,0-2.43,0l-.06.1a1.93,1.93,0,0,1,2.55,0Z"/><path class="cls-7" d="M26.19,16.83l-.06.1a3,3,0,0,0,0,.31,2.83,2.83,0,0,0,0,.29h0a2.83,2.83,0,0,1,0-.29A1.84,1.84,0,0,1,26.19,16.83Z"/><path class="cls-1" d="M30.08,16.93a3,3,0,0,1,0,.31,2.11,2.11,0,0,1,0,.25h0a2.11,2.11,0,0,0,0-.25,1.77,1.77,0,0,0,0-.23Z"/><path class="cls-1" d="M29.27,15.57a2.07,2.07,0,0,0-2.33,0l-.05.09a2,2,0,0,1,2.43,0Z"/><path class="cls-1" d="M26.13,16.93l-.05.09a1.55,1.55,0,0,0,0,.22,2.83,2.83,0,0,0,0,.29h0a2.83,2.83,0,0,1,0-.29A3,3,0,0,1,26.13,16.93Z"/><path class="cls-8" d="M30.13,17a1.77,1.77,0,0,1,0,.23,2.11,2.11,0,0,1,0,.25h0a2.11,2.11,0,0,0,0-.25.76.76,0,0,0,0-.15Z"/><path class="cls-8" d="M29.22,15.49a2.1,2.1,0,0,0-2.23,0l0,.08a2.07,2.07,0,0,1,2.33,0Z"/><path class="cls-8" d="M26.08,17l0,.07a.76.76,0,0,0,0,.15,2.83,2.83,0,0,0,0,.29h0a2.83,2.83,0,0,1,0-.29A1.55,1.55,0,0,1,26.08,17Z"/><path class="cls-9" d="M30.17,17.09a.76.76,0,0,1,0,.15,2.11,2.11,0,0,1,0,.25h0a2.11,2.11,0,0,0,0-.25v-.07Z"/><path class="cls-9" d="M29.18,15.42a2.14,2.14,0,0,0-2.15,0l0,.07a2.1,2.1,0,0,1,2.23,0Z"/><path class="cls-9" d="M26,17.09l-.05.08v.07a2.83,2.83,0,0,0,0,.29h0a2.83,2.83,0,0,1,0-.29A.76.76,0,0,1,26,17.09Z"/><path class="cls-10" d="M30.22,17.17v.07a2.11,2.11,0,0,1,0,.25h0a2.11,2.11,0,0,0,0-.25h0Z"/><path class="cls-10" d="M29.14,15.35a2.19,2.19,0,0,0-2.07,0l0,.07a2.14,2.14,0,0,1,2.15,0Z"/><path class="cls-10" d="M26,17.17l0,.07h0a2.83,2.83,0,0,0,0,.29h0a2.83,2.83,0,0,1,0-.29Z"/><path class="cls-11" d="M30.26,17.23h0a2.11,2.11,0,0,1,0,.25h0c0-.06,0-.13,0-.19Z"/><path class="cls-11" d="M29.1,15.29a2.18,2.18,0,0,0-2,0l0,.06a2.19,2.19,0,0,1,2.07,0Z"/><path class="cls-11" d="M26,17.24l0,.06c0,.08,0,.15,0,.23h0a2.83,2.83,0,0,1,0-.29Z"/><path class="cls-12" d="M30.3,17.3c0,.06,0,.13,0,.19h0a.57.57,0,0,0,0-.13Z"/><path class="cls-12" d="M29.07,15.23a2.23,2.23,0,0,0-1.93,0l0,.06a2.18,2.18,0,0,1,2,0Z"/><path class="cls-12" d="M25.88,17.36a1,1,0,0,0,0,.17h0c0-.08,0-.15,0-.23Z"/><path class="cls-1" d="M27,17.62h.22s.07,0,0,0H27Z"/><path class="cls-1" d="M27.06,17.73a.4.4,0,0,1,.11,0s0,0,0,0h-.1Z"/><path class="cls-1" d="M27.94,17.61a1.92,1.92,0,0,0,.24,0v0a2,2,0,0,1-.22,0Z"/><path class="cls-1" d="M28.82,17.58H29v0h-.15Z"/><path class="cls-1" d="M29.4,17.59a1.33,1.33,0,0,1,.2,0v0h-.17Z"/><path class="cls-1" d="M30.59,17.8l-.2,0s0,0,0,0l.21,0Z"/><path class="cls-1" d="M25.6,17.83l.31,0,.08,0-.36,0Z"/><path class="cls-1" d="M25.67,17.71l0,0a.94.94,0,0,1,.41,0l0,0A1,1,0,0,0,25.67,17.71Z"/><path class="cls-1" d="M25.73,17.6l0,.07a1.43,1.43,0,0,1,.5,0l0,0A1.41,1.41,0,0,0,25.73,17.6Z"/><path class="cls-1" d="M26.36,18.71s0,0,0,0a.79.79,0,0,1,.43,0c.08,0,.07,0,.05.05h.29a1.08,1.08,0,0,1-.28-.06,1,1,0,0,0-.55,0,.72.72,0,0,1-.26,0Z"/><path class="cls-1" d="M30.39,17.46l-.7,0c-.15,0-.85,0-1,0l-1.26,0-1.61,0,0,.06h2l.78,0h.91l.94,0Z"/><path class="cls-1" d="M30.45,17.55l-.34,0s-.07,0,0,0h.35Z"/><path class="cls-1" d="M30.49,17.63l-.3,0s-.06,0,0,0h.32Z"/><path class="cls-1" d="M30.55,17.72l-.26,0s-.07,0,0,0l.28,0Z"/><path class="cls-1" d="M31,18.4a.58.58,0,0,1-.24,0c-.05,0-.1,0,0,0a.62.62,0,0,0,.3.06Z"/><path class="cls-1" d="M31,18.5a1.27,1.27,0,0,1-.42-.09.88.88,0,0,0-.51,0,1.79,1.79,0,0,1-.74,0,1.58,1.58,0,0,0-.72,0c-.12.05-.1.07,0,0a1.73,1.73,0,0,1,.68,0,2,2,0,0,0,.65.07l.35,0c.06,0,.05,0,0,0a2.23,2.23,0,0,1-.94,0,1.7,1.7,0,0,0-.7,0,1,1,0,0,1-.53-.05.63.63,0,0,0-.41-.05s-.05,0,0,0a.74.74,0,0,1,.38.06,1.06,1.06,0,0,0,.57.06,1.24,1.24,0,0,1,.66,0,1.21,1.21,0,0,0,.68,0,1.46,1.46,0,0,1,.54,0,2,2,0,0,0,.44,0Z"/><path class="cls-1" d="M31.07,18.6a1.45,1.45,0,0,1-.46,0,1.64,1.64,0,0,0-.58.05,1.94,1.94,0,0,1-.73-.07,1.66,1.66,0,0,0-.49,0,1.41,1.41,0,0,1-.68-.05,1.18,1.18,0,0,0-.7,0,1.11,1.11,0,0,1-.53,0,1,1,0,0,0-.55,0,1.17,1.17,0,0,1-.53,0,1.49,1.49,0,0,0-.54-.05l0,.05a1.22,1.22,0,0,1,.56,0,1.06,1.06,0,0,0,.56,0,.8.8,0,0,1,.53,0,1.35,1.35,0,0,0,.57,0,1,1,0,0,1,.65,0,2,2,0,0,0,.71.07,1.31,1.31,0,0,1,.52,0,1.41,1.41,0,0,0,.71.06,1.56,1.56,0,0,1,.57-.05,1.33,1.33,0,0,0,.46,0Z"/><path class="cls-1" d="M31.11,18.68a1.78,1.78,0,0,1-.39,0,1.49,1.49,0,0,0-.61,0,1.14,1.14,0,0,1-.61,0,1.81,1.81,0,0,0-.62,0,2.8,2.8,0,0,1-.84-.09,1.22,1.22,0,0,0-.66,0,1.08,1.08,0,0,1-.59-.05.71.71,0,0,0-.42,0,1,1,0,0,1-.55,0,1.49,1.49,0,0,0-.59,0l0,0a1.88,1.88,0,0,1,.61,0,1,1,0,0,0,.55,0,1,1,0,0,1,.42,0,1,1,0,0,0,.61.05,1.08,1.08,0,0,1,.64,0,2.41,2.41,0,0,0,.85.08,1.44,1.44,0,0,1,.61,0,1.12,1.12,0,0,0,.63,0,1.55,1.55,0,0,1,.6,0,1.31,1.31,0,0,0,.4,0Z"/><path class="cls-1" d="M31.17,18.77a3.36,3.36,0,0,1-.45,0,1.35,1.35,0,0,0-.52,0,1.34,1.34,0,0,1-.69,0,1.38,1.38,0,0,0-.58,0,2,2,0,0,1-.76,0,1,1,0,0,0-.74,0c-.14,0-.79,0-1,0a1.58,1.58,0,0,1-.55-.11,1.82,1.82,0,0,0-.73-.05l0,0a1.18,1.18,0,0,1,.65.07,2.36,2.36,0,0,0-.7,0l0,.07a2.85,2.85,0,0,1,.92,0,1.78,1.78,0,0,0,.69,0,1.34,1.34,0,0,1,.68.09h.85a.65.65,0,0,0-.41,0,.41.41,0,0,1-.29,0c-.06,0,0,0,.09-.06a.77.77,0,0,1,.68.14h.67a.4.4,0,0,1,.43,0l.15,0h.7a1,1,0,0,1,.51,0,1.73,1.73,0,0,0,.46,0Z"/><path class="cls-9" d="M30.68,18a.88.88,0,0,1-.78-.54l-.28,0s-.06.17-.1.28a1.2,1.2,0,0,1-.25-.38,1.46,1.46,0,0,1-.21,0c0,.06-.12.26-.15.34a3.47,3.47,0,0,1-.3-.42l-.29,0a1.37,1.37,0,0,1-.27.48,2.65,2.65,0,0,1-.32-.55l-.23,0c-.06.11-.23.45-.33.62a4.89,4.89,0,0,1-.5-.75l-.2,0a1,1,0,0,1-.93.81l-.2.33a1.43,1.43,0,0,1,.39.06,1.11,1.11,0,0,0,.6,0,1.22,1.22,0,0,1,.63,0,1.43,1.43,0,0,0,.87-.08,1.06,1.06,0,0,0,.83.05,1.38,1.38,0,0,1,.67,0,1.61,1.61,0,0,0,.87,0c.31-.09.5.08.73.09Z"/><path class="cls-13" d="M26.47,17.12a1.77,1.77,0,0,0,.75,1.21h.12a4.93,4.93,0,0,1-.56-.65.25.25,0,0,1,0-.08,2.5,2.5,0,0,0,.78.71l.16,0a2.57,2.57,0,0,1-1-1.17Z"/><path class="cls-13" d="M28.42,17.26a1.27,1.27,0,0,1-.31.58.6.6,0,0,0,.08.08,1,1,0,0,0,.15-.15s.05.08,0,.24a2.51,2.51,0,0,0,.46.24l-.33.07a2,2,0,0,1-.67-.66.27.27,0,0,0,.08.29,2,2,0,0,0,.46.38,1,1,0,0,1-.47-.11,2.3,2.3,0,0,1-.33-1l.23,0a2.85,2.85,0,0,0,.32.55,1.26,1.26,0,0,0,.27-.48Z"/><path class="cls-13" d="M29.13,17.33a1.84,1.84,0,0,1-.16.41l-.06-.07.15-.34S29.12,17.34,29.13,17.33Z"/><path class="cls-13" d="M29,17.82l.08.05a.36.36,0,0,0,0-.24C29.06,17.67,29.05,17.78,29,17.82Z"/><path class="cls-13" d="M29.52,17.71l.07.05a2.3,2.3,0,0,0,.1-.33h-.07C29.58,17.54,29.53,17.67,29.52,17.71Z"/><polygon class="cls-14" points="31.21 18.84 28.11 13.61 25 18.84 31.21 18.84"/><rect class="cls-15" x="0.62" y="0.62" width="54.97" height="32.98"/></g></g></svg>