<svg xmlns="http://www.w3.org/2000/svg" viewBox="0 0 103.44 84.48"><defs><style>.cls-1{fill:#fff;}</style></defs><title>Recurso 8</title><g id="Capa_2" data-name="Capa 2"><g id="Capa_3" data-name="Capa 3"><polygon class="cls-1" points="40.3 24.68 7.09 5.5 7.09 67.53 40.3 77.55 40.3 24.68"/><polygon class="cls-1" points="43.95 24.8 43.95 77.57 77.37 67.52 77.37 5.5 43.95 24.8"/><path class="cls-1" d="M103.44,3.93a3.93,3.93,0,1,0-7.85,0V8.16h7.85Z"/><polygon class="cls-1" points="96.56 66.43 95.59 66.43 99.52 80.17 103.44 66.43 102.47 66.43 103.44 66.43 103.44 11.24 102.47 11.24 101.49 11.24 100.46 11.24 98.5 11.24 97.54 11.24 96.56 11.24 95.58 11.24 95.58 66.43 96.56 66.43"/><polygon class="cls-1" points="84.51 8.16 80.95 5.35 80.95 69.21 44.05 81.14 42.34 81.14 42 81.14 40.3 81.14 3.56 70.87 3.56 5.35 0 8.16 0 73.37 40.13 84.48 42 84.48 42.34 84.48 44.21 84.48 81.24 72.73 84.51 71.76 84.51 8.16"/></g></g></svg>