<svg xmlns="http://www.w3.org/2000/svg" viewBox="0 0 24.3 25.58"><defs><style>.cls-1{fill:#00a5d4;stroke:#00a5d4;}.cls-1,.cls-2{stroke-linecap:round;stroke-linejoin:round;}.cls-2,.cls-3{fill:#fbb03b;}.cls-2{stroke:#fbb03b;}</style></defs><title>icon_sexo_color</title><g id="Layer_2" data-name="Layer 2"><g id="Capa_3" data-name="Capa 3"><circle class="cls-1" cx="4.67" cy="4.17" r="3.67"/><polygon class="cls-1" points="8.83 9.83 0.5 9.83 0.5 20.33 2.75 20.33 2.75 25.08 6.83 25.08 6.83 20.33 8.83 20.33 8.83 9.83"/><circle class="cls-2" cx="18.64" cy="4.17" r="3.67"/><polygon class="cls-3" points="20.8 9.83 16.47 9.83 13.47 20.33 16.72 20.33 16.72 25.08 20.8 25.08 20.8 20.33 23.8 20.33 20.8 9.83"/><polygon class="cls-2" points="20.8 9.83 16.47 9.83 13.47 20.33 16.72 20.33 16.72 25.08 20.8 25.08 20.8 20.33 23.8 20.33 20.8 9.83"/></g></g></svg>