<svg xmlns="http://www.w3.org/2000/svg" viewBox="0 0 26.96 22.02"><defs><style>.cls-1{fill:#5e7c8b;}</style></defs><title>icon_ods4_indicadores</title><g id="Layer_2" data-name="Layer 2"><g id="Capa_3" data-name="Capa 3"><polygon class="cls-1" points="10.5 6.43 1.85 1.43 1.85 17.6 10.5 20.21 10.5 6.43"/><polygon class="cls-1" points="11.45 6.46 11.45 20.22 20.16 17.6 20.16 1.43 11.45 6.46"/><path class="cls-1" d="M27,1a1,1,0,0,0-2.05,0V2.13H27Z"/><polygon class="cls-1" points="25.17 17.31 24.91 17.31 25.94 20.89 26.96 17.31 26.7 17.31 26.96 17.31 26.96 2.93 26.7 2.93 26.45 2.93 26.18 2.93 25.67 2.93 25.42 2.93 25.17 2.93 24.91 2.93 24.91 17.31 25.17 17.31"/><polygon class="cls-1" points="22.02 2.13 21.1 1.4 21.1 18.04 11.48 21.15 11.04 21.15 10.95 21.15 10.5 21.15 0.93 18.47 0.93 1.4 0 2.13 0 19.12 10.46 22.02 10.95 22.02 11.04 22.02 11.52 22.02 21.17 18.95 22.02 18.7 22.02 2.13"/></g></g></svg>