<svg xmlns="http://www.w3.org/2000/svg" viewBox="0 0 33.49 32.87"><defs><style>.cls-1{fill:#006a9b;}</style></defs><title>icon_pec_table</title><g id="Layer_2" data-name="Layer 2"><g id="Capa_3" data-name="Capa 3"><path class="cls-1" d="M33.49,3.16A3.16,3.16,0,0,0,30.33,0V3.16Z"/><path class="cls-1" d="M8.62,0A4.25,4.25,0,0,0,4.37,4.25V25.94H23l-.15,1.35a5.75,5.75,0,0,0,1.06,4.51,3.22,3.22,0,0,0,1.45.91,5.07,5.07,0,0,0,4.05-5V0Z"/><path class="cls-1" d="M4.37,28.38H0c.35,2.53,1.75,4.49,3.37,4.49H21.61a.21.21,0,0,0,0-.06H4.37Z"/><path class="cls-1" d="M4.37,28.38v4.43h17.2a7.66,7.66,0,0,1-1.26-4.43Z"/></g></g></svg>