<svg xmlns="http://www.w3.org/2000/svg" viewBox="0 0 160.61 88.66"><defs><style>.cls-1{fill:#fff;}</style></defs><title>icon_cumplimiento_metas</title><g id="Layer_2" data-name="Layer 2"><g id="Capa_3" data-name="Capa 3"><path class="cls-1" d="M80.58,36.3A43.47,43.47,0,0,1,93.1,38.13l8.46-28.78a73.57,73.57,0,0,0-43,.34l9.71,28.39A43.49,43.49,0,0,1,80.58,36.3Z"/><path class="cls-1" d="M114.44,52.47l23.83-18.21A74,74,0,0,0,106,10.85L97.54,39.74A43.8,43.8,0,0,1,114.44,52.47Z"/><path class="cls-1" d="M124.11,77.53h30a73.13,73.13,0,0,0-13-39.49L117.21,56.28A43.36,43.36,0,0,1,124.11,77.53Z"/><path class="cls-1" d="M15.9,59.18a1.75,1.75,0,0,1,2-1.16c1,.19,10.86,2.09,22.76,4.43a43.77,43.77,0,0,1,3.26-6.08L20,38.13A73.16,73.16,0,0,0,7,77.53h30a45.38,45.38,0,0,1,.7-5.75c-11-5.44-20.07-10-21-10.46A1.76,1.76,0,0,1,15.9,59.18Z"/><path class="cls-1" d="M63.8,39.67,54.08,11.26A74,74,0,0,0,22.83,34.35l23.83,18.2A43.9,43.9,0,0,1,63.8,39.67Z"/><path class="cls-1" d="M80.31,0C36,0,0,36.81,0,82.07a1.75,1.75,0,0,0,1.76,1.75H42.6a1.75,1.75,0,0,0,1.75-1.65q.23-3.51.75-6.75L42.16,74l-.33-.16A65.16,65.16,0,0,0,41,80.31H3.54a79.26,79.26,0,0,1,20-51,75.42,75.42,0,0,1,109-4.75A78.15,78.15,0,0,1,142.6,36.22l.32.41h0a79,79,0,0,1,11,23,80.16,80.16,0,0,1,3.18,20.64H120.76c-1.62-24.09-17.69-40.16-40.45-40.16-16.92,0-29.36,8.38-35.44,23.13l.52.1,3,.59c5.59-13.09,16.66-20.3,32-20.3,21.59,0,36.13,15.1,37,38.46a1.75,1.75,0,0,0,1.75,1.69h39.77a1.75,1.75,0,0,0,1.75-1.75C160.61,36.81,124.59,0,80.31,0Z"/><path class="cls-1" d="M88.34,78.7a7,7,0,0,0-4-3.58c-2.18-.77-19.82-4.36-37.29-7.82L44,66.7l-.36-.08-2.24-.44-2.06-.4-9.5-1.86,8.73,4.35,2,1,2.07,1,.28.14,2.93,1.45c16.18,8,31.72,15.63,33.9,16.4a7,7,0,0,0,8.63-9.55Z"/></g></g></svg>