<svg xmlns="http://www.w3.org/2000/svg" viewBox="0 0 14.92 23.89"><defs><style>.cls-1{fill:#00a5d4;stroke:#00a5d4;stroke-linecap:round;stroke-linejoin:round;}</style></defs><title>icon_indice_color</title><g id="Layer_2" data-name="Layer 2"><g id="Capa_3" data-name="Capa 3"><path class="cls-1" d="M.61,23.39.5,23.26l.1-.8.14-.15.74,0A4.36,4.36,0,0,0,3.11,22a1.54,1.54,0,0,0,.47-.7,37.48,37.48,0,0,0,.86-4.24l1.5-8.58a53.94,53.94,0,0,0,.84-5.91.93.93,0,0,0-.11-.47.76.76,0,0,0-.35-.27,4.08,4.08,0,0,0-1-.14L3.84,1.64l-.11-.12L3.86.64,4,.5C5.46.57,7.16.61,9.1.61c.79,0,2.54,0,5.23-.11l.09.13-.14.89-.15.12c-1.22.05-1.91.09-2.06.13a1.17,1.17,0,0,0-.43.23,1.35,1.35,0,0,0-.3.45,24.88,24.88,0,0,0-.71,3.15L8.52,17.84a32.89,32.89,0,0,0-.44,3.42.8.8,0,0,0,.34.73,2.18,2.18,0,0,0,1,.24l1.68.08.11.13-.1.81-.14.14c-1.25-.07-3-.11-5.31-.11C3.91,23.28,2.23,23.32.61,23.39Z"/></g></g></svg>