<svg xmlns="http://www.w3.org/2000/svg" viewBox="0 0 14.97 23.92"><defs><style>.cls-1{fill:none;stroke:#5e7c8b;stroke-miterlimit:10;}</style></defs><title>icon_indice_line</title><g id="Layer_2" data-name="Layer 2"><g id="Capa_3" data-name="Capa 3"><path class="cls-1" d="M.64,23.4l-.12-.13.1-.8.14-.15.75-.05a4.34,4.34,0,0,0,1.62-.22,1.47,1.47,0,0,0,.47-.7,37.48,37.48,0,0,0,.86-4.24L6,8.53A53.94,53.94,0,0,0,6.8,2.62a.87.87,0,0,0-.11-.46.69.69,0,0,0-.34-.28,4.26,4.26,0,0,0-1-.14L3.86,1.66l-.11-.13L3.88.65,4,.51c1.47.08,3.17.11,5.1.11.8,0,2.54,0,5.23-.11l.09.13-.14.89-.14.13a15.68,15.68,0,0,0-2.07.13,1.17,1.17,0,0,0-.43.22,1.35,1.35,0,0,0-.3.45,27.55,27.55,0,0,0-.71,3.15L8.54,17.85a32.89,32.89,0,0,0-.44,3.42.8.8,0,0,0,.34.73,2.18,2.18,0,0,0,1,.24l1.68.08.11.13-.1.81L11,23.4c-1.25-.07-3-.11-5.31-.11C3.94,23.29,2.25,23.33.64,23.4Z"/></g></g></svg>