<?xml version="1.0" encoding="utf-8"?>
<!-- Generator: Adobe Illustrator 22.0.1, SVG Export Plug-In . SVG Version: 6.00 Build 0)  -->
<svg version="1.1" id="Layer_1" xmlns="http://www.w3.org/2000/svg" xmlns:xlink="http://www.w3.org/1999/xlink" x="0px" y="0px"
	 viewBox="0 0 73.2 65.6" style="enable-background:new 0 0 73.2 65.6;" xml:space="preserve">
<style type="text/css">
	.st0{fill:#FD6925;}
	.st1{fill:none;stroke:#EAEEF2;stroke-width:1.06;stroke-miterlimit:10;}
	.st2{fill:#EAEEF2;}
	.st3{fill:none;stroke:#EAEEF2;stroke-width:1.06;stroke-linecap:round;stroke-linejoin:round;}
	.st4{fill:none;stroke:#FD6925;stroke-width:1.06;stroke-linecap:round;stroke-linejoin:round;}
</style>
<title>icon_datos_centroseduc</title>
<g id="Layer_2_1_">
	<g id="Capa_3">
		<polygon class="st0" points="68.6,64.2 4.6,64.2 4.6,34.5 17.9,34.5 36.6,15.7 55.3,34.5 68.6,34.5 		"/>
		<path class="st0" d="M36.6,11.3h11c0.6,0,1.1-0.5,1.1-1.1c0-0.2-0.1-0.4-0.2-0.6l-1.8-2.7l1.8-2.6c0.2-0.3,0.2-0.8,0.1-1.1
			c-0.2-0.4-0.6-0.6-1-0.6h-11"/>
		<path class="st0" d="M42.1,20.1H63c0.4,0,0.7,0.2,0.9,0.5L72.5,34c0.2,0.3-0.6-0.5-0.8-0.1c-0.2,0.4-0.6,0.6-1,0.6H55.7"/>
		<circle class="st1" cx="36.6" cy="34.5" r="6.6"/>
		<rect x="10.1" y="52.1" class="st2" width="5.5" height="6.6"/>
		<rect x="20.1" y="52.1" class="st2" width="5.4" height="6.6"/>
		<rect x="20.1" y="40" class="st2" width="5.4" height="6.6"/>
		<rect x="10.2" y="40" class="st2" width="5.4" height="6.6"/>
		<polyline class="st3" points="36.6,30.1 36.6,34.5 39.8,33 		"/>
		<rect x="57.6" y="52.1" class="st2" width="5.4" height="6.6"/>
		<rect x="47.6" y="52.1" class="st2" width="5.4" height="6.6"/>
		<rect x="57.6" y="40" class="st2" width="5.4" height="6.6"/>
		<rect x="47.6" y="40" class="st2" width="5.4" height="6.6"/>
		<rect x="30" y="46.1" class="st2" width="13.2" height="18.2"/>
		<path class="st0" d="M70.8,65.3H2.4c-0.6-0.1-1.1-0.6-1-1.2c0.1-0.5,0.5-0.9,1-1h68.4c0.6-0.1,1.2,0.4,1.2,1
			c0.1,0.6-0.4,1.2-1,1.2C70.9,65.3,70.9,65.3,70.8,65.3z"/>
		<polyline class="st4" points="30.3,51 36.8,51 43.2,51 		"/>
		<line class="st4" x1="36.8" y1="63.7" x2="36.8" y2="51"/>
		<path class="st0" d="M36.6,16.8c-0.6,0-1.1-0.5-1.1-1.1V1.4c0-0.6,0.5-1.1,1.1-1.1s1.1,0.5,1.1,1.1v14.3
			C37.7,16.3,37.2,16.8,36.6,16.8C36.6,16.8,36.6,16.8,36.6,16.8z"/>
		<rect x="55.3" y="33.3" class="st2" width="17.6" height="2.3"/>
		<path class="st0" d="M31.1,20.1H10.2c-0.4,0-0.7,0.2-0.9,0.5L0.7,34c-0.2,0.3,0.6-0.5,0.8-0.1c0.2,0.4,0.6,0.6,1,0.6h15.1"/>
		<rect x="0.3" y="33.3" class="st2" width="17.6" height="2.3"/>
	</g>
</g>
</svg>