<svg xmlns="http://www.w3.org/2000/svg" viewBox="0 0 78.71 55.29"><defs><style>.cls-1{fill:#009b8a;}.cls-2,.cls-3{fill:#eaeef2;}.cls-3{font-size:27.59px;font-family:RobotoSlab-Bold, Roboto Slab;font-weight:700;letter-spacing:0em;}.cls-4{letter-spacing:0em;}</style></defs><title>icon_datos_alfabetizacion</title><g id="Layer_2" data-name="Layer 2"><g id="Capa_3" data-name="Capa 3"><rect class="cls-1" x="7.54" y="3.98" width="63.17" height="47.62"/><path class="cls-1" d="M72.53,0H6.18A2.46,2.46,0,0,0,3.72,2.46V50.38a1.23,1.23,0,0,0,2.46,0V2.46H72.53V50.38a1.23,1.23,0,1,0,2.46,0V2.46A2.46,2.46,0,0,0,72.53,0Z"/><path class="cls-1" d="M77.48,55.29H1.23A1.23,1.23,0,0,1,0,54.07V51.61a1.23,1.23,0,0,1,1.23-1.23H77.48a1.23,1.23,0,0,1,1.23,1.23v2.46A1.23,1.23,0,0,1,77.48,55.29Z"/><path class="cls-2" d="M20.92,50.38V47.92a1.23,1.23,0,0,0-1.23-1.23H12.32a1.23,1.23,0,0,0-1.23,1.23v2.46"/><text class="cls-3" transform="translate(10.87 34.99)">A<tspan class="cls-4" x="20.44" y="0">BC</tspan></text></g></g></svg>