<svg xmlns="http://www.w3.org/2000/svg" viewBox="0 0 42.53 34.73"><defs><style>.cls-1{fill:#bf1922;}</style></defs><title>icon_ods_table</title><g id="Layer_2" data-name="Layer 2"><g id="Capa_3" data-name="Capa 3"><polygon class="cls-1" points="16.57 10.14 2.91 2.26 2.91 27.77 16.57 31.89 16.57 10.14"/><polygon class="cls-1" points="18.07 10.2 18.07 31.89 31.81 27.76 31.81 2.26 18.07 10.2"/><path class="cls-1" d="M42.53,1.62a1.62,1.62,0,1,0-3.23,0V3.36h3.23Z"/><polygon class="cls-1" points="39.7 27.31 39.3 27.31 40.92 32.96 42.53 27.31 42.13 27.31 42.53 27.31 42.53 4.62 42.13 4.62 41.73 4.62 41.3 4.62 40.5 4.62 40.1 4.62 39.7 4.62 39.3 4.62 39.3 27.31 39.7 27.31"/><polygon class="cls-1" points="34.74 3.36 33.28 2.2 33.28 28.46 18.11 33.36 17.41 33.36 17.27 33.36 16.57 33.36 1.47 29.14 1.47 2.2 0 3.36 0 30.17 16.5 34.73 17.27 34.73 17.41 34.73 18.18 34.73 33.4 29.9 34.74 29.51 34.74 3.36"/></g></g></svg>