<svg xmlns="http://www.w3.org/2000/svg" viewBox="0 0 192.24 73.26"><defs><style>.cls-1{fill:#fff;}</style></defs><title>Recurso 7</title><g id="Capa_2" data-name="Capa 2"><g id="Capa_3" data-name="Capa 3"><path class="cls-1" d="M19.92,73.26h10.7V62.36h4.57V53.54H30.62V6.06H19.52L0,55.42v6.94H19.92Zm-10-19.72L20,25.89h.1V53.54Z"/><path class="cls-1" d="M56.68,5.26H68V9.11H61.4v8h4.69V21H61.4V29.5H68v3.85H56.68Z"/><path class="cls-1" d="M84.6,12.8v13c0,4.31-1.78,7.54-6.84,7.54H70.47V5.26h7.29C82.82,5.26,84.6,8.45,84.6,12.8ZM77.19,29.5c1.94,0,2.69-1.16,2.69-2.86V11.93c0-1.66-.75-2.82-2.69-2.82h-2V29.5Z"/><path class="cls-1" d="M101,5.26V26.51c0,4.36-1.86,7.17-6.67,7.17-5,0-7-2.81-7-7.17V5.26H92V27c0,1.66.66,2.78,2.32,2.78s2.32-1.12,2.32-2.78V5.26Z"/><path class="cls-1" d="M103.69,26.1V12.51c0-4.39,2.07-7.58,7-7.58,5.22,0,6.67,2.9,6.67,7v3.32h-4.3V11.6c0-1.74-.58-2.73-2.28-2.73s-2.4,1.2-2.4,2.9V26.84c0,1.7.7,2.91,2.4,2.91s2.28-1.08,2.28-2.74V21.83h4.3v4.85c0,4-1.65,7-6.67,7S103.69,30.45,103.69,26.1Z"/><path class="cls-1" d="M118.81,33.35l5.3-28.09h5.39l5.34,28.09H130l-.87-5.14h-5l-.83,5.14Zm5.92-8.91h3.77l-1.86-11.27h0Z"/><path class="cls-1" d="M136.16,26.1V12.51c0-4.39,2.07-7.58,7-7.58,5.22,0,6.67,2.9,6.67,7v3.32h-4.3V11.6c0-1.74-.59-2.73-2.28-2.73s-2.41,1.2-2.41,2.9V26.84c0,1.7.71,2.91,2.41,2.91s2.28-1.08,2.28-2.74V21.83h4.3v4.85c0,4-1.65,7-6.67,7S136.16,30.45,136.16,26.1Z"/><path class="cls-1" d="M152.44,5.26h4.72V33.35h-4.72Z"/><path class="cls-1" d="M159.89,26.1V12.51c0-4.39,2.15-7.58,7.13-7.58s7.16,3.19,7.16,7.58V26.1c0,4.35-2.15,7.58-7.16,7.58S159.89,30.45,159.89,26.1Zm11-22.83-7.41,1V1.58L170.87,0Zm-1.41,23.57V11.77c0-1.7-.75-2.9-2.44-2.9s-2.41,1.2-2.41,2.9V26.84c0,1.7.75,2.91,2.41,2.91S169.46,28.54,169.46,26.84Z"/><path class="cls-1" d="M180.85,15.7V33.35h-4V5.26h4.64l5.1,16.12V5.26h3.93V33.35H186.4Z"/><path class="cls-1" d="M70.81,52.15v13c0,4.3-1.78,7.54-6.84,7.54H56.68V44.61H64C69,44.61,70.81,47.8,70.81,52.15Zm-7.42,16.7c2,0,2.7-1.17,2.7-2.86V51.28c0-1.66-.75-2.82-2.7-2.82h-2V68.85Z"/><path class="cls-1" d="M73.5,44.61H84.77v3.85H78.22v8H82.9v3.81H78.22v8.54h6.55V72.7H73.5Z"/><path class="cls-1" d="M91.64,65.45V51.86c0-4.39,2.07-7.58,7-7.58,5.22,0,6.67,2.9,6.67,7v3.32H101V51c0-1.74-.58-2.74-2.28-2.74s-2.4,1.2-2.4,2.9V66.19c0,1.7.71,2.9,2.4,2.9S101,68,101,66.36V61.18h4.31V66c0,4-1.65,7-6.67,7S91.64,69.8,91.64,65.45Z"/><path class="cls-1" d="M106.75,72.7l5.31-28.09h5.38l5.35,28.09h-4.85l-.87-5.14h-5l-.83,5.14Zm5.93-8.91h3.77l-1.87-11.27h0Z"/><path class="cls-1" d="M124.73,44.61h4.72V68.85h5.64V72.7H124.73Z"/><path class="cls-1" d="M137.24,44.61H142V72.7h-4.72Z"/><path class="cls-1" d="M158.82,52.15v13c0,4.3-1.78,7.54-6.84,7.54h-7.29V44.61H152C157,44.61,158.82,47.8,158.82,52.15Zm-7.42,16.7c1.95,0,2.7-1.17,2.7-2.86V51.28c0-1.66-.75-2.82-2.7-2.82h-2V68.85Z"/><path class="cls-1" d="M160.14,72.7l5.3-28.09h5.39l5.34,28.09h-4.84l-.87-5.14h-5l-.82,5.14Zm5.93-8.91h3.76L168,52.52h0Z"/><path class="cls-1" d="M192.24,52.15v13c0,4.3-1.78,7.54-6.83,7.54h-7.3V44.61h7.3C190.46,44.61,192.24,47.8,192.24,52.15Zm-7.41,16.7c1.94,0,2.69-1.17,2.69-2.86V51.28c0-1.66-.75-2.82-2.69-2.82h-2V68.85Z"/></g></g></svg>