<svg xmlns="http://www.w3.org/2000/svg" viewBox="0 0 70.68 61.93"><defs><style>.cls-1,.cls-2{fill:#0071bc;}.cls-2{stroke:#0071bc;stroke-width:2.14px;}.cls-2,.cls-4{stroke-linecap:round;stroke-linejoin:round;}.cls-3,.cls-4{fill:none;stroke:#eaeef2;}.cls-3{stroke-miterlimit:10;}.cls-4{stroke-width:1.42px;}</style></defs><title>icon_datos_educ</title><g id="Layer_2" data-name="Layer 2"><g id="Capa_3" data-name="Capa 3"><path class="cls-1" d="M34.75,37.7,12.09,25.05V39.49c0,3.2,2.76,6.32,7.59,8.54a38.27,38.27,0,0,0,15.66,3.09A38.31,38.31,0,0,0,51,48c4.82-2.22,7.59-5.34,7.59-8.54V24.69l-22.66,13A1.14,1.14,0,0,1,34.75,37.7Z"/><path class="cls-2" d="M67,19.73,35.34,1.07,3.67,19.73l12.61,7.42h0L35.34,38.39Z"/><path class="cls-1" d="M7.93,47.67H6V27.47A7.09,7.09,0,0,1,12.43,20l22.74-4.17.34,1.85L12.7,21.86a5.31,5.31,0,0,0-4.77,5.59Z"/><ellipse class="cls-3" cx="35.34" cy="16.76" rx="3.71" ry="1.59"/><circle class="cls-1" cx="6.95" cy="47.71" r="2.63"/><path class="cls-1" d="M9.58,54a2.64,2.64,0,0,0-5.27,0v7.92H9.58Z"/><path class="cls-4" d="M.71,20.14,14.5,28.26h0L35.34,40.54,70,20.14"/></g></g></svg>