<svg xmlns="http://www.w3.org/2000/svg" viewBox="0 0 20.31 19.94"><defs><style>.cls-1{fill:#5e7c8b;}</style></defs><title>icon_pec_indicadores</title><g id="Layer_2" data-name="Layer 2"><g id="Capa_3" data-name="Capa 3"><path class="cls-1" d="M20.31,1.91A1.92,1.92,0,0,0,18.4,0V1.91Z"/><path class="cls-1" d="M5.23,0A2.57,2.57,0,0,0,2.65,2.58V15.73H13.92l-.09.82a3.53,3.53,0,0,0,.64,2.74,2,2,0,0,0,.88.55,3.09,3.09,0,0,0,2.46-3V0Z"/><path class="cls-1" d="M2.65,17.21H0c.21,1.54,1.06,2.73,2.05,2.73H13.11l0,0H2.65Z"/><path class="cls-1" d="M2.65,17.21V19.9H13.09a4.6,4.6,0,0,1-.77-2.69Z"/></g></g></svg>