<svg xmlns="http://www.w3.org/2000/svg" viewBox="0 0 24.37 25.5"><defs><style>.cls-1{fill:none;stroke:#5e7c8b;stroke-miterlimit:10;stroke-width:0.92px;}</style></defs><title>icon_sexo_line</title><g id="Layer_2" data-name="Layer 2"><g id="Capa_3" data-name="Capa 3"><circle class="cls-1" cx="4.63" cy="4.13" r="3.67"/><polygon class="cls-1" points="8.79 9.79 0.46 9.79 0.46 20.29 2.71 20.29 2.71 25.04 6.79 25.04 6.79 20.29 8.79 20.29 8.79 9.79"/><circle class="cls-1" cx="18.6" cy="4.13" r="3.67"/><polygon class="cls-1" points="20.76 9.79 16.43 9.79 13.43 20.29 16.68 20.29 16.68 25.04 20.76 25.04 20.76 20.29 23.76 20.29 20.76 9.79"/><polygon class="cls-1" points="20.76 9.79 16.43 9.79 13.43 20.29 16.68 20.29 16.68 25.04 20.76 25.04 20.76 20.29 23.76 20.29 20.76 9.79"/></g></g></svg>