<svg xmlns="http://www.w3.org/2000/svg" viewBox="0 0 50.88 68.78"><defs><style>.cls-1{fill:#26bde2;}.cls-2{fill:#eaeef2;}.cls-3{fill:#eee045;}.cls-4{fill:none;stroke:#26bde2;stroke-miterlimit:10;}</style></defs><title>icono_datos_niños</title><g id="Layer_2" data-name="Layer 2"><g id="Capa_3" data-name="Capa 3"><path class="cls-1" d="M25.44,7.54A24.52,24.52,0,0,0,.94,32V49.94a4.71,4.71,0,0,1,4.71-4.71H45.23a4.71,4.71,0,0,1,4.71,4.71V32A24.52,24.52,0,0,0,25.44,7.54Z"/><path class="cls-2" d="M45.23,45.23H5.65A4.71,4.71,0,0,0,.94,49.94V63.13a4.71,4.71,0,0,0,4.71,4.71H32a2.93,2.93,0,0,0,2.93-2.93h0A2.93,2.93,0,0,1,32,67.84H45.23a4.71,4.71,0,0,0,4.71-4.71V49.94A4.71,4.71,0,0,0,45.23,45.23Z"/><path class="cls-3" d="M25.22,11.31h0Z"/><path class="cls-3" d="M25.66,11.31h0Z"/><path class="cls-1" d="M26.24,11.32H24.79c-.35,0-.73.08-1.11.15a8.81,8.81,0,0,1,1-.15A20.73,20.73,0,0,0,4.71,32v13.2H46.25V32A20.74,20.74,0,0,0,26.24,11.32Z"/><path class="cls-1" d="M46.17,46.17H4.71a.94.94,0,0,1-.94-.94V32a21.67,21.67,0,1,1,43.34,0v13.2A.94.94,0,0,1,46.17,46.17ZM5.65,44.28H45.23V32A19.79,19.79,0,0,0,5.65,32Z"/><path class="cls-1" d="M42.4,53.71H8.48a.95.95,0,0,1,0-1.89H42.4a.95.95,0,0,1,0,1.89Z"/><path class="cls-2" d="M23.55,30.15a.94.94,0,0,1-.94-.94V25.44a.95.95,0,0,1,1.89,0v3.77A.94.94,0,0,1,23.55,30.15Z"/><path class="cls-2" d="M27.32,30.15a.94.94,0,0,1-.94-.94V25.44a.95.95,0,0,1,1.89,0v3.77A1,1,0,0,1,27.32,30.15Z"/><path class="cls-1" d="M21.67,7.83V5.35a1.57,1.57,0,0,1,1.57-1.57h4.4a1.58,1.58,0,0,1,1.57,1.57V7.83a23.8,23.8,0,0,1,3.77.9v-4A4.71,4.71,0,0,0,28.27,0H22.61A4.71,4.71,0,0,0,17.9,4.71v4A23.8,23.8,0,0,1,21.67,7.83Z"/><path class="cls-1" d="M45.23,68.78H5.65A5.66,5.66,0,0,1,0,63.13V49.94a5.67,5.67,0,0,1,5.65-5.66H45.23a5.67,5.67,0,0,1,5.65,5.66V63.13A5.66,5.66,0,0,1,45.23,68.78ZM5.65,46.17a3.78,3.78,0,0,0-3.77,3.77V63.13A3.78,3.78,0,0,0,5.65,66.9H45.23A3.77,3.77,0,0,0,49,63.13V49.94a3.77,3.77,0,0,0-3.76-3.77Z"/><line class="cls-4" x1="11.52" y1="52.76" x2="11.52" y2="57.18"/></g></g></svg>