<svg xmlns="http://www.w3.org/2000/svg" viewBox="0 0 19.79 20.31"><defs><style>.cls-1{fill:#00a5d4;stroke:#00a5d4;stroke-linecap:round;stroke-linejoin:round;}.cls-2,.cls-3{fill:none;stroke:#fff;stroke-miterlimit:10;stroke-width:0.92px;}.cls-3{stroke-dasharray:2.09 1.04;}</style></defs><title>icon_historico_color</title><g id="Layer_2" data-name="Layer 2"><g id="Capa_6" data-name="Capa 6"><path class="cls-1" d="M9.9,19.81A9.39,9.39,0,0,0,16.74,4L14.85,2.43A9.4,9.4,0,1,0,9.9,19.81"/><polyline class="cls-2" points="9.38 3.73 9.84 10.57 14.21 14.4"/><path class="cls-2" d="M9.9,19.81a8.1,8.1,0,0,0,1,0"/><path class="cls-3" d="M11.93,19.59A9.39,9.39,0,0,0,17.68,5.16"/><path class="cls-2" d="M17.39,4.75A9.45,9.45,0,0,0,16.74,4"/><path class="cls-2" d="M14.85,2.43A9.4,9.4,0,1,0,9.9,19.81"/><polyline class="cls-2" points="14.52 0.06 14.85 2.7 12.21 3.04"/></g></g></svg>