<svg xmlns="http://www.w3.org/2000/svg" viewBox="0 0 23.3 18.94"><defs><style>.cls-1{fill:#55acee;}</style></defs><title>Recurso 3</title><g id="Capa_2" data-name="Capa 2"><g id="Capa_3" data-name="Capa 3"><path class="cls-1" d="M23.3,2.24A9.43,9.43,0,0,1,20.56,3,4.81,4.81,0,0,0,22.66.35a9.73,9.73,0,0,1-3,1.16,4.78,4.78,0,0,0-8.27,3.27,4.34,4.34,0,0,0,.13,1.09,13.56,13.56,0,0,1-9.86-5A4.79,4.79,0,0,0,3.1,7.26a4.78,4.78,0,0,1-2.16-.6v.06a4.78,4.78,0,0,0,3.83,4.69,4.73,4.73,0,0,1-1.26.16,5.29,5.29,0,0,1-.9-.08,4.8,4.8,0,0,0,4.47,3.32,9.62,9.62,0,0,1-5.94,2A10.57,10.57,0,0,1,0,16.79a13.49,13.49,0,0,0,7.33,2.15A13.51,13.51,0,0,0,20.93,5.33c0-.2,0-.41,0-.61A9.85,9.85,0,0,0,23.3,2.24Z"/></g></g></svg>